<svg width="25" height="25" viewBox="0 0 25 25" fill="none" xmlns="http://www.w3.org/2000/svg">
<path d="M12.7209 13.6069C14.133 13.6069 15.2817 12.4582 15.2817 11.0461C15.2817 9.63407 14.133 8.48535 12.7209 8.48535C11.3089 8.48535 10.1602 9.63407 10.1602 11.0461C10.1602 12.4582 11.3089 13.6069 12.7209 13.6069ZM12.7209 9.04447C13.8246 9.04447 14.7226 9.94243 14.7226 11.0461C14.7226 12.1498 13.8246 13.0478 12.7209 13.0478C11.6172 13.0478 10.7193 12.1498 10.7193 11.0461C10.7193 9.94243 11.6172 9.04447 12.7209 9.04447Z" fill="#222222" stroke="#222222" stroke-width="0.2"/>
<path d="M14.8853 13.1663C14.3346 13.7287 13.5675 14.0787 12.7196 14.0787C11.8716 14.0787 11.1048 13.7287 10.5538 13.1663C9.20267 13.9264 8.28711 15.3734 8.28711 17.0312V18.8028C8.61783 18.9602 9.81967 19.4117 12.7193 19.4117C15.6189 19.4117 16.8176 18.9613 17.1514 18.8025V17.0312C17.1514 15.3734 16.2362 13.9264 14.885 13.1663H14.8853ZM16.5929 17.0312V18.4201C16.4086 18.4799 16.1475 18.5503 15.7933 18.6171C14.9628 18.7734 13.9287 18.8525 12.7196 18.8525C11.5105 18.8525 10.4747 18.7731 9.64354 18.6169C9.29074 18.5503 9.03018 18.4802 8.84651 18.4206V17.0315C8.84651 16.3326 9.03577 15.6474 9.39361 15.0497C9.67401 14.5817 10.0503 14.1774 10.4948 13.8643C10.7419 14.06 11.0128 14.2219 11.3044 14.3474C11.7528 14.5403 12.2289 14.6382 12.7196 14.6382C13.2102 14.6382 13.6863 14.5403 14.1347 14.3474C14.4263 14.2219 14.6972 14.06 14.9443 13.8643C15.3888 14.1774 15.7651 14.5817 16.0455 15.0497C16.4033 15.6471 16.5926 16.3326 16.5926 17.0315L16.5929 17.0312Z" fill="#222222" stroke="#222222" stroke-width="0.2"/>
<path d="M18.1995 11.0827C19.6115 11.0827 20.7602 9.93403 20.7602 8.52196C20.7602 7.1099 19.6115 5.96118 18.1995 5.96118C16.7874 5.96118 15.6387 7.1099 15.6387 8.52196C15.6387 9.93403 16.7874 11.0827 18.1995 11.0827ZM18.1995 6.5203C19.3032 6.5203 20.2011 7.41826 20.2011 8.52196C20.2011 9.62567 19.3032 10.5236 18.1995 10.5236C17.0957 10.5236 16.1978 9.62567 16.1978 8.52196C16.1978 7.41826 17.0957 6.5203 18.1995 6.5203Z" fill="#222222" stroke="#222222" stroke-width="0.2"/>
<path d="M20.3677 10.6421C19.817 11.2046 19.0499 11.5546 18.2019 11.5546C17.354 11.5546 16.5917 11.2065 16.0412 10.6468C16.0585 10.7777 16.0683 10.9107 16.0683 11.0461C16.0683 11.6988 15.8601 12.3032 15.5078 12.7986C16.9218 13.6278 17.8863 15.1441 17.9372 16.8861C18.0239 16.8869 18.1122 16.8875 18.2019 16.8875C21.0979 16.8875 22.3003 16.4371 22.6341 16.2783V14.507C22.6341 12.8492 21.7188 11.4022 20.3677 10.6421ZM22.075 15.8959C21.8908 15.9557 21.6296 16.0262 21.2754 16.093C20.5027 16.2384 19.5542 16.3169 18.4527 16.3273C18.3554 15.5797 18.1033 14.8568 17.7119 14.2104C17.3375 13.5923 16.8419 13.0522 16.2604 12.6256C16.4024 12.3376 16.5044 12.0329 16.5643 11.7181C16.6381 11.7561 16.7136 11.7916 16.7904 11.8246C17.2377 12.0167 17.7127 12.114 18.2019 12.114C18.6912 12.114 19.1687 12.0161 19.6171 11.8232C19.9087 11.6977 20.1796 11.5358 20.4267 11.3402C20.8712 11.6533 21.2475 12.0575 21.5279 12.5255C21.8857 13.1229 22.075 13.8084 22.075 14.5073V15.8962V15.8959Z" fill="#222222" stroke="#222222" stroke-width="0.2"/>
<path d="M7.22875 11.0827C8.64082 11.0827 9.78953 9.93403 9.78953 8.52196C9.78953 7.1099 8.64082 5.96118 7.22875 5.96118C5.81669 5.96118 4.66797 7.1099 4.66797 8.52196C4.66797 9.93403 5.81669 11.0827 7.22875 11.0827ZM7.22875 6.5203C8.33246 6.5203 9.23041 7.41826 9.23041 8.52196C9.23041 9.62567 8.33246 10.5236 7.22875 10.5236C6.12504 10.5236 5.22709 9.62567 5.22709 8.52196C5.22709 7.41826 6.12504 6.5203 7.22875 6.5203Z" fill="#222222" stroke="#222222" stroke-width="0.2"/>
<path d="M9.93436 12.7984C9.58211 12.303 9.37384 11.6986 9.37384 11.0458C9.37384 10.9102 9.38362 10.7769 9.40096 10.6458C9.39872 10.6446 9.39676 10.6432 9.39453 10.6418C8.84379 11.2043 8.07667 11.5543 7.22876 11.5543C6.38085 11.5543 5.61402 11.2043 5.063 10.6418C3.71216 11.4023 2.79688 12.8493 2.79688 14.5071V16.2786C3.1276 16.436 4.32943 16.8875 7.22904 16.8875C7.32325 16.8875 7.41551 16.887 7.50637 16.8861C7.55753 15.1442 8.52062 13.6278 9.93464 12.7987L9.93436 12.7984ZM7.73086 14.2104C7.33975 14.8568 7.08786 15.5797 6.99058 16.3273C5.88267 16.3175 4.92909 16.2387 4.15303 16.0925C3.80022 16.0259 3.53967 15.9558 3.356 15.8962V14.5071C3.356 13.8082 3.54526 13.123 3.9031 12.5253C4.1835 12.0573 4.55979 11.653 5.00429 11.3399C5.25142 11.5356 5.52232 11.6975 5.8139 11.823C6.26232 12.0159 6.73841 12.1137 7.22904 12.1137C7.71967 12.1137 8.19577 12.0159 8.64418 11.823C8.7233 11.7889 8.80074 11.7523 8.87678 11.7128C8.9366 12.0293 9.03864 12.3357 9.1815 12.6253C8.60029 13.0522 8.10491 13.5923 7.73058 14.2104H7.73086Z" fill="#222222" stroke="#222222" stroke-width="0.2"/>
</svg>
