<svg width="25" height="25" viewBox="0 0 25 25" fill="none" xmlns="http://www.w3.org/2000/svg">
<path fill-rule="evenodd" clip-rule="evenodd" d="M7.37151 5.30993C6.78955 5.30993 6.31775 5.78174 6.31775 6.3637V19.8086L8.94096 18.7039C9.04892 18.6422 9.1815 18.6422 9.28951 18.7039L11.7749 20.0094L14.2186 18.8116C14.3265 18.7499 14.7575 18.6422 14.8655 18.7039L17.6139 19.8086V9.17374C17.6139 8.97974 17.7711 8.82249 17.9651 8.82249H20.4239V6.3637C20.4239 5.78174 19.9521 5.30993 19.3702 5.30993H7.37151ZM5.61523 6.3637C5.61523 5.39373 6.40154 4.60742 7.37151 4.60742H19.3702C20.3401 4.60742 21.1264 5.39373 21.1264 6.3637V9.17374C21.1264 9.36775 20.9692 9.525 20.7752 9.525H18.3164V20.4139C18.3164 20.5391 18.2497 20.6549 18.1414 20.7177C18.0331 20.7806 17.8996 20.781 17.7909 20.7189L14.6912 19.4134L11.9492 20.7189C11.8412 20.7806 11.7086 20.7806 11.6006 20.7189L9.11523 19.4134L6.14077 20.7189C6.03208 20.781 5.89849 20.7806 5.79019 20.7177C5.68189 20.6549 5.61523 20.5391 5.61523 20.4139L5.61523 6.3637Z" fill="#222222" stroke="#222222" stroke-width="0.15"/>
<path fill-rule="evenodd" clip-rule="evenodd" d="M11.957 6.29468C12.1685 6.29468 12.3398 6.46606 12.3398 6.67749V7.18789H13.4883C13.6997 7.18789 13.8711 7.35926 13.8711 7.5707C13.8711 7.78213 13.6997 7.95351 13.4883 7.95351H11.319C11.0371 7.95351 10.8086 8.18204 10.8086 8.46391C10.8086 8.74578 11.0371 8.9743 11.319 8.9743H12.595C13.2998 8.9743 13.8711 9.54558 13.8711 10.2503C13.8711 10.9551 13.2998 11.5264 12.595 11.5264H12.3398V12.0368C12.3398 12.2482 12.1685 12.4196 11.957 12.4196C11.7456 12.4196 11.5742 12.2482 11.5742 12.0368V11.5264H10.4258C10.2143 11.5264 10.043 11.355 10.043 11.1436C10.043 10.9322 10.2143 10.7608 10.4258 10.7608H12.595C12.8769 10.7608 13.1055 10.5323 13.1055 10.2503C13.1055 9.96839 12.8769 9.73993 12.595 9.73993H11.319C10.6142 9.73993 10.043 9.16865 10.043 8.46391C10.043 7.75917 10.6142 7.18789 11.319 7.18789H11.5742V6.67749C11.5742 6.46606 11.7456 6.29468 11.957 6.29468Z" fill="#222222" stroke="#222222" stroke-width="0.15"/>
<path fill-rule="evenodd" clip-rule="evenodd" d="M7.72266 14.0915C7.72266 13.8975 7.92755 13.7402 8.18034 13.7402H15.5033C15.756 13.7402 15.9609 13.8975 15.9609 14.0915C15.9609 14.2855 15.756 14.4427 15.5033 14.4427H8.18034C7.92755 14.4427 7.72266 14.2855 7.72266 14.0915Z" fill="#222222" stroke="#222222" stroke-width="0.15"/>
<path fill-rule="evenodd" clip-rule="evenodd" d="M7.72266 15.4963C7.72266 15.3023 7.92755 15.145 8.18034 15.145H15.5033C15.756 15.145 15.9609 15.3023 15.9609 15.4963C15.9609 15.6903 15.756 15.8475 15.5033 15.8475H8.18034C7.92755 15.8475 7.72266 15.6903 7.72266 15.4963Z" fill="#222222" stroke="#222222" stroke-width="0.15"/>
<path fill-rule="evenodd" clip-rule="evenodd" d="M7.72266 16.9013C7.72266 16.7073 7.92755 16.55 8.18034 16.55H15.5033C15.756 16.55 15.9609 16.7073 15.9609 16.9013C15.9609 17.0953 15.756 17.2526 15.5033 17.2526H8.18034C7.92755 17.2526 7.72266 17.0953 7.72266 16.9013Z" fill="#222222" stroke="#222222" stroke-width="0.15"/>
<path fill-rule="evenodd" clip-rule="evenodd" d="M17.5957 6.3637C17.5957 5.39373 18.382 4.60742 19.352 4.60742C20.322 4.60742 21.1083 5.39373 21.1083 6.3637V9.17375C21.1083 9.36775 20.951 9.525 20.757 9.525H18.2982V20.4139C18.2982 20.6079 18.141 20.7652 17.947 20.7652C17.753 20.7652 17.5957 20.6079 17.5957 20.4139V6.3637ZM18.2982 8.82249H20.4057V6.3637C20.4057 5.78174 19.9339 5.30993 19.352 5.30993C18.77 5.30993 18.2982 5.78174 18.2982 6.3637V8.82249Z" fill="#222222" stroke="#222222" stroke-width="0.15"/>
</svg>
