<svg width="25" height="25" viewBox="0 0 25 25" fill="none" xmlns="http://www.w3.org/2000/svg">
<path fill-rule="evenodd" clip-rule="evenodd" d="M10.1584 8.39308C10.4264 7.12307 12.2351 7.11106 12.5199 8.37741L12.5401 8.46741C13.0291 10.6411 14.6906 12.3603 16.8467 12.9232C16.8467 12.9232 16.8467 12.9232 16.8467 12.9232L17.2139 13.019C18.5613 13.3707 18.5325 15.2936 17.1752 15.6049L17.0712 15.6287C14.85 16.1381 13.1142 17.87 12.5999 20.0901C12.2749 21.4933 10.3293 21.3987 10.0167 20.0754C9.49676 17.8746 7.77543 16.1579 5.57328 15.6443L5.45663 15.6171C4.10047 15.3007 4.07895 13.3777 5.42769 13.0311L5.81379 12.9319C8.00686 12.368 9.69089 10.609 10.1584 8.39308ZM11.569 8.59125C11.5139 8.34622 11.1639 8.34855 11.1121 8.59428C10.568 11.1729 8.60842 13.2196 6.05651 13.8758L5.67029 13.9751C5.30893 14.0679 5.3147 14.5832 5.67805 14.6679L5.79465 14.6951C5.79466 14.6951 5.79465 14.6951 5.79465 14.6951C8.35727 15.2928 10.3602 17.2905 10.9653 19.8514C11.0087 20.0354 11.15 20.1286 11.3153 20.1306C11.4781 20.1326 11.6095 20.0469 11.6504 19.8702C12.2489 17.2867 14.2687 15.2715 16.8533 14.6787L16.9573 14.6549C17.321 14.5715 17.3287 14.0563 16.9677 13.9621L16.6006 13.8662C14.0916 13.2113 12.1582 11.2107 11.5892 8.68132L11.569 8.59125Z" fill="#222222"/>
<path fill-rule="evenodd" clip-rule="evenodd" d="M14.566 4.08304C13.9028 4.08304 13.3653 4.62062 13.3653 5.28377C13.3653 5.94691 13.9028 6.48449 14.566 6.48449C15.2291 6.48449 15.7667 5.94691 15.7667 5.28377C15.7667 4.62062 15.2291 4.08304 14.566 4.08304ZM12.3906 5.28377C12.3906 4.08234 13.3646 3.1084 14.566 3.1084C15.7674 3.1084 16.7414 4.08234 16.7414 5.28377C16.7414 6.48519 15.7674 7.45913 14.566 7.45913C13.3646 7.45913 12.3906 6.48519 12.3906 5.28377Z" fill="#222222"/>
<path fill-rule="evenodd" clip-rule="evenodd" d="M17.7332 7.04454C18.1644 6.29765 19.2424 6.29765 19.6737 7.04454L20.8566 9.09351C21.2878 9.8404 20.7488 10.774 19.8864 10.774H17.5204C16.658 10.774 16.119 9.8404 16.5502 9.0935L17.7332 7.04454ZM18.8296 7.53186C18.7735 7.43473 18.6333 7.43473 18.5772 7.53186L17.3943 9.58083C17.3382 9.67796 17.4083 9.79937 17.5204 9.79937H19.8864C19.9985 9.79937 20.0686 9.67796 20.0126 9.58083L18.8296 7.53186Z" fill="#222222"/>
</svg>
