<svg width="32" height="33" viewBox="0 0 32 33" fill="none" xmlns="http://www.w3.org/2000/svg">
<path d="M27 9.5V23.5C27 24.6046 26.1045 25.5 25 25.5H6C4.89551 25.5 4 24.6046 4 23.5V9.5C4 8.39545 4.89551 7.5 6 7.5L25 7.5C26.1045 7.5 27 8.39545 27 9.5Z" fill="#F5F5F5"/>
<path d="M30 12.5V20.5C30 21.0523 30.4477 21.5 31 21.5C31.5523 21.5 32 21.0523 32 20.5V12.5C32 11.9477 31.5523 11.5 31 11.5C30.4477 11.5 30 11.9477 30 12.5Z" fill="#282828"/>
<path fill-rule="evenodd" clip-rule="evenodd" d="M25 6.5C25 6.5 26.2426 6.5 27.1213 7.37868C27.1213 7.37868 28 8.25736 28 9.5V23.5C28 23.5 28 24.7426 27.1213 25.6213C27.1213 25.6213 26.2426 26.5 25 26.5H6C6 26.5 4.75736 26.5 3.87868 25.6213C3.87868 25.6213 3 24.7426 3 23.5V9.5C3 9.5 3 8.25736 3.87868 7.37868C3.87868 7.37868 4.75736 6.5 6 6.5L25 6.5ZM25 8.5L6 8.5C6 8.5 5.58579 8.5 5.29289 8.79289C5.29289 8.79289 5 9.08579 5 9.5V23.5C5 23.5 5 23.9142 5.29289 24.2071C5.29289 24.2071 5.58579 24.5 6 24.5H25C25 24.5 25.4142 24.5 25.7071 24.2071C25.7071 24.2071 26 23.9142 26 23.5L26 9.5C26 9.5 26 9.08579 25.7071 8.79289C25.7071 8.79289 25.4142 8.5 25 8.5Z" fill="#282828"/>
</svg>
