<svg width="16" height="16" viewBox="0 0 16 16" fill="none" xmlns="http://www.w3.org/2000/svg">
<g clip-path="url(#clip0_506_47443)">
<path fill-rule="evenodd" clip-rule="evenodd" d="M7.9987 1.8335C4.59294 1.8335 1.83203 4.59441 1.83203 8.00016C1.83203 11.4059 4.59294 14.1668 7.9987 14.1668C11.4045 14.1668 14.1654 11.4059 14.1654 8.00016C14.1654 4.59441 11.4045 1.8335 7.9987 1.8335ZM0.832031 8.00016C0.832031 4.04212 4.04066 0.833496 7.9987 0.833496C11.9567 0.833496 15.1654 4.04212 15.1654 8.00016C15.1654 11.9582 11.9567 15.1668 7.9987 15.1668C4.04066 15.1668 0.832031 11.9582 0.832031 8.00016Z" fill="#828282"/>
<path fill-rule="evenodd" clip-rule="evenodd" d="M7.9987 6.73828C8.36689 6.73828 8.66536 7.02319 8.66536 7.37464V11.3634C8.66536 11.7149 8.36689 11.9998 7.9987 11.9998C7.63051 11.9998 7.33203 11.7149 7.33203 11.3634V7.37464C7.33203 7.02319 7.63051 6.73828 7.9987 6.73828Z" fill="#828282"/>
<path fill-rule="evenodd" clip-rule="evenodd" d="M7.33203 4.66667C7.33203 4.29848 7.62853 4 7.99428 4H8.00311C8.36886 4 8.66536 4.29848 8.66536 4.66667C8.66536 5.03486 8.36886 5.33333 8.00311 5.33333H7.99428C7.62853 5.33333 7.33203 5.03486 7.33203 4.66667Z" fill="#828282"/>
</g>
<defs>
<clipPath id="clip0_506_47443">
<rect width="16" height="16" fill="white"/>
</clipPath>
</defs>
</svg>
