<svg width="32" height="33" viewBox="0 0 32 33" fill="none" xmlns="http://www.w3.org/2000/svg">
<g clip-path="url(#clip0_559_23120)">
<path d="M15.5 4.5C8.59564 4.5 3 9.87182 3 16.5C3 23.1282 8.59564 28.5 15.5 28.5C22.4044 28.5 28 23.1282 28 16.5C28 9.87182 22.4021 4.5 15.5 4.5ZM22.0772 17.9564C20.7102 23.638 16.6586 27.5921 13.026 26.7876C9.39342 25.983 7.55584 20.723 8.92282 15.0414C10.2898 9.35981 14.3414 5.4057 17.974 6.21029C21.6066 7.01488 23.4442 12.2748 22.0772 17.9564Z" fill="#82DC28"/>
<path d="M19.294 10.8852C18.8772 12.6041 17.5035 13.7615 16.2262 13.4775C14.9466 13.1935 14.2474 11.5714 14.6553 9.85685C15.0699 8.1444 16.4413 6.987 17.7187 7.26882C19.0027 7.55279 19.7041 9.17273 19.294 10.8852Z" fill="#FF7878"/>
</g>
<defs>
<clipPath id="clip0_559_23120">
<rect width="25" height="24" fill="white" transform="translate(3 4.5)"/>
</clipPath>
</defs>
</svg>
