<svg width="20" height="20" viewBox="0 0 20 20" fill="none" xmlns="http://www.w3.org/2000/svg">
<path fill-rule="evenodd" clip-rule="evenodd" d="M10 20C15.5228 20 20 15.5228 20 10C20 4.47715 15.5228 0 10 0C4.47715 0 0 4.47715 0 10C0 15.5228 4.47715 20 10 20ZM11.4467 9.99587L13.6518 12.0291L13.6482 12.0357C13.9709 12.3299 13.9673 12.8126 13.6482 13.1102C13.3291 13.4077 12.8056 13.4077 12.4829 13.1102L10.2778 11.0769L8.06907 13.1135C7.74279 13.4044 7.23722 13.4044 6.91452 13.1135L6.90735 13.1069C6.75676 12.9647 6.66712 12.7763 6.66712 12.5779C6.66353 12.3729 6.74958 12.1812 6.90376 12.0357L9.11247 9.99917L6.90735 7.96595C6.58465 7.67171 6.58823 7.18902 6.90735 6.89148C7.22646 6.59393 7.74996 6.59393 8.07266 6.89148L10.2778 8.9214L12.4865 6.88487C12.8128 6.59393 13.3183 6.59393 13.641 6.88487L13.6482 6.89148C13.9637 7.18572 13.9709 7.66179 13.6554 7.95934L11.4467 9.99587Z" fill="#A1A7AE"/>
</svg>
