<svg width="20" height="20" viewBox="0 0 20 20" fill="none" xmlns="http://www.w3.org/2000/svg">
<path fill-rule="evenodd" clip-rule="evenodd" d="M4.16667 3.125C3.59137 3.125 3.125 3.59137 3.125 4.16667V15.8333C3.125 16.4086 3.59137 16.875 4.16667 16.875H15.8333C16.4086 16.875 16.875 16.4086 16.875 15.8333V4.16667C16.875 3.59137 16.4086 3.125 15.8333 3.125H4.16667ZM1.875 4.16667C1.875 2.90101 2.90101 1.875 4.16667 1.875H15.8333C17.099 1.875 18.125 2.90101 18.125 4.16667V15.8333C18.125 17.099 17.099 18.125 15.8333 18.125H4.16667C2.90101 18.125 1.875 17.099 1.875 15.8333V4.16667Z" fill="#828282"/>
<path fill-rule="evenodd" clip-rule="evenodd" d="M7.0835 6.4585C6.73832 6.4585 6.4585 6.73832 6.4585 7.0835C6.4585 7.42867 6.73832 7.7085 7.0835 7.7085C7.42867 7.7085 7.7085 7.42867 7.7085 7.0835C7.7085 6.73832 7.42867 6.4585 7.0835 6.4585ZM5.2085 7.0835C5.2085 6.04796 6.04796 5.2085 7.0835 5.2085C8.11903 5.2085 8.9585 6.04796 8.9585 7.0835C8.9585 8.11903 8.11903 8.9585 7.0835 8.9585C6.04796 8.9585 5.2085 8.11903 5.2085 7.0835Z" fill="#828282"/>
<path fill-rule="evenodd" clip-rule="evenodd" d="M12.8912 7.89155C13.1353 7.64748 13.531 7.64748 13.7751 7.89155L17.9418 12.0582C18.1859 12.3023 18.1859 12.698 17.9418 12.9421C17.6977 13.1862 17.302 13.1862 17.0579 12.9421L13.3332 9.21738L4.60845 17.9421C4.36437 18.1862 3.96864 18.1862 3.72456 17.9421C3.48048 17.698 3.48048 17.3023 3.72456 17.0582L12.8912 7.89155Z" fill="#828282"/>
</svg>
