<svg width="24" height="24" viewBox="0 0 24 24" fill="none" xmlns="http://www.w3.org/2000/svg">
<g id="LNB icon 6">
<path id="Vector" d="M11.9988 6.73633C8.93582 6.73633 6.45068 9.21935 6.45068 12.2845C6.45068 15.3496 8.93582 17.8326 11.9988 17.8326C15.0619 17.8326 17.547 15.3475 17.547 12.2845C17.547 9.22146 15.0619 6.73633 11.9988 6.73633ZM11.9988 15.1379C10.4239 15.1379 9.1475 13.8594 9.1475 12.2845C9.1475 10.7096 10.4239 9.43103 11.9988 9.43314C13.5737 9.43314 14.8502 10.7096 14.8502 12.2866C14.8502 13.8636 13.5737 15.1401 11.9988 15.1401V15.1379Z" fill="#5D6772"/>
<path id="Vector_2" d="M21.548 12.2847C21.548 12.09 21.5417 11.8952 21.5311 11.7047L23.0002 9.75089C22.852 9.10103 22.6467 8.47234 22.3884 7.87116L20.0557 7.15356C19.8461 6.82758 19.6175 6.51217 19.372 6.2137L19.4122 3.77302C18.9147 3.33907 18.3792 2.94958 17.8119 2.60666L15.5024 3.39623C15.1426 3.2544 14.7742 3.13586 14.3953 3.03637L12.9898 1.04445C12.6638 1.01693 12.3336 1 11.9991 1C11.6646 1 11.3344 1.01482 11.0084 1.04234L9.60499 3.03849C9.22608 3.13586 8.85776 3.25652 8.4979 3.39834L6.18846 2.60878C5.62116 2.9517 5.08561 3.34119 4.58816 3.77514L4.62626 6.21582C4.38071 6.51429 4.14998 6.82969 3.94253 7.15568L1.60769 7.87328C1.35155 8.47445 1.14622 9.10315 0.998047 9.75301L2.46711 11.7068C2.45653 11.8995 2.45018 12.0942 2.45018 12.2889C2.45018 12.4837 2.45653 12.6763 2.46711 12.8689L0.998047 14.8228C1.14622 15.4726 1.35155 16.1013 1.60769 16.7025L3.94253 17.4201C4.14998 17.7482 4.38071 18.0615 4.62626 18.36L4.58816 20.8006C5.08561 21.2346 5.62116 21.6241 6.18846 21.967L8.4979 21.1774C8.85776 21.3193 9.22608 21.4399 9.60499 21.5373L11.0084 23.5313C11.3344 23.5588 11.6646 23.5758 11.9991 23.5758C12.3336 23.5758 12.6617 23.561 12.9877 23.5313L14.3911 21.5373C14.77 21.4399 15.1383 21.3193 15.4982 21.1774L17.8076 21.967C18.3749 21.6262 18.9105 21.2346 19.4079 20.8006L19.3677 18.36C19.6154 18.0615 19.8419 17.7461 20.0514 17.4201L22.3842 16.7025C22.6403 16.1013 22.8456 15.4726 22.9959 14.8228L21.5269 12.8689C21.5396 12.6763 21.5438 12.4837 21.5438 12.2889L21.548 12.2847ZM11.9991 19.2003C8.17826 19.2003 5.08349 16.1034 5.08349 12.2847C5.08349 8.46599 8.18038 5.36909 11.9991 5.36909C15.8178 5.36909 18.9147 8.46599 18.9147 12.2847C18.9147 16.1034 15.8178 19.2003 11.9991 19.2003Z" fill="#A1A7AE"/>
<path id="Vector_3" d="M11.9991 5.36914C8.17827 5.36914 5.0835 8.46603 5.0835 12.2848C5.0835 16.1035 8.18039 19.2004 11.9991 19.2004C15.8178 19.2004 18.9147 16.1035 18.9147 12.2848C18.9147 8.46603 15.8178 5.36914 11.9991 5.36914ZM11.9991 17.8329C8.93609 17.8329 6.45095 15.3478 6.45095 12.2848C6.45095 9.22173 8.93609 6.7366 11.9991 6.7366C15.0621 6.7366 17.5473 9.22173 17.5473 12.2848C17.5473 15.3478 15.0621 17.8329 11.9991 17.8329Z" fill="white"/>
</g>
</svg>
