<svg width="20" height="20" viewBox="0 0 20 20" fill="none" xmlns="http://www.w3.org/2000/svg">
<path fill-rule="evenodd" clip-rule="evenodd" d="M1.71321 3.37953C2.14298 2.94976 2.72587 2.70831 3.33366 2.70831H9.16699C9.51217 2.70831 9.79199 2.98814 9.79199 3.33331C9.79199 3.67849 9.51217 3.95831 9.16699 3.95831H3.33366C3.05739 3.95831 2.79244 4.06806 2.59709 4.26341C2.40174 4.45876 2.29199 4.72371 2.29199 4.99998V16.6666C2.29199 16.9429 2.40174 17.2079 2.59709 17.4032C2.79244 17.5986 3.05739 17.7083 3.33366 17.7083H15.0003C15.2766 17.7083 15.5415 17.5986 15.7369 17.4032C15.9322 17.2079 16.042 16.9429 16.042 16.6666V10.8333C16.042 10.4881 16.3218 10.2083 16.667 10.2083C17.0122 10.2083 17.292 10.4881 17.292 10.8333V16.6666C17.292 17.2744 17.0505 17.8573 16.6208 18.2871C16.191 18.7169 15.6081 18.9583 15.0003 18.9583H3.33366C2.72587 18.9583 2.14298 18.7169 1.71321 18.2871C1.28343 17.8573 1.04199 17.2744 1.04199 16.6666V4.99998C1.04199 4.39219 1.28343 3.8093 1.71321 3.37953Z" fill="#828282"/>
<path fill-rule="evenodd" clip-rule="evenodd" d="M16.667 2.19055C16.3639 2.19055 16.0733 2.31095 15.8589 2.52526L8.06469 10.3195L7.52599 12.4743L9.68081 11.9356L17.4751 4.14138C17.6894 3.92707 17.8098 3.6364 17.8098 3.33332C17.8098 3.03024 17.6894 2.73957 17.4751 2.52526C17.2608 2.31095 16.9701 2.19055 16.667 2.19055ZM14.9751 1.64138C15.4238 1.19265 16.0324 0.940552 16.667 0.940552C17.3016 0.940552 17.9102 1.19265 18.3589 1.64138C18.8077 2.09011 19.0598 2.69872 19.0598 3.33332C19.0598 3.96792 18.8077 4.57653 18.3589 5.02526L10.4423 12.9419C10.3622 13.022 10.2618 13.0789 10.1519 13.1063L6.81859 13.9397C6.60561 13.9929 6.3803 13.9305 6.22506 13.7753C6.06983 13.62 6.00742 13.3947 6.06067 13.1817L6.894 9.8484C6.92147 9.73851 6.9783 9.63814 7.0584 9.55804L14.9751 1.64138Z" fill="#828282"/>
</svg>
