<svg width="22" height="22" viewBox="0 0 22 22" fill="none" xmlns="http://www.w3.org/2000/svg">
<path d="M11 11.6875H18.5625C18.9422 11.6875 19.25 11.3797 19.25 11C19.25 10.6203 18.9422 10.3125 18.5625 10.3125H11C10.6203 10.3125 10.3125 10.6203 10.3125 11C10.3125 11.3797 10.6203 11.6875 11 11.6875Z" fill="#262D34"/>
<path d="M11 6.1875H18.5625C18.9422 6.1875 19.25 5.8797 19.25 5.5C19.25 5.1203 18.9422 4.8125 18.5625 4.8125H11C10.6203 4.8125 10.3125 5.1203 10.3125 5.5C10.3125 5.8797 10.6203 6.1875 11 6.1875Z" fill="#262D34"/>
<path d="M11 17.1875H18.5625C18.9422 17.1875 19.25 16.8797 19.25 16.5C19.25 16.1203 18.9422 15.8125 18.5625 15.8125H11C10.6203 15.8125 10.3125 16.1203 10.3125 16.5C10.3125 16.8797 10.6203 17.1875 11 17.1875Z" fill="#262D34"/>
<path d="M8.37213 4.63058C8.37894 4.6243 8.38583 4.61769 8.39239 4.61114C8.51452 4.48901 8.5862 4.32538 8.59319 4.15281L8.59323 4.15179C8.59358 4.14286 8.59375 4.13393 8.59375 4.125C8.59375 3.95228 8.52874 3.78589 8.41165 3.65892C8.40536 3.65211 8.39894 3.64542 8.39239 3.63886C8.27026 3.51673 8.10663 3.44505 7.93406 3.43806L7.93304 3.43802C7.92411 3.43767 7.91518 3.4375 7.90625 3.4375C7.73353 3.4375 7.56714 3.50251 7.44017 3.6196L4.92489 5.93917L3.9043 4.99527C3.77725 4.87777 3.61056 4.8125 3.4375 4.8125C3.42856 4.8125 3.41962 4.81267 3.41068 4.81302C3.22848 4.82014 3.05657 4.89934 2.93277 5.0332C2.81527 5.16025 2.75 5.32694 2.75 5.5C2.75 5.50894 2.75017 5.51788 2.75052 5.52682C2.75764 5.70902 2.83684 5.88093 2.9707 6.00473L4.45742 7.37973C4.72063 7.62317 5.12673 7.62346 5.39029 7.3804L8.37213 4.63058Z" fill="#262D34"/>
<path d="M8.37213 10.1306C8.37894 10.1243 8.38583 10.1177 8.39239 10.1111C8.51452 9.98901 8.5862 9.82538 8.59319 9.65281L8.59323 9.65179C8.59358 9.64286 8.59375 9.63393 8.59375 9.625C8.59375 9.45228 8.52874 9.28589 8.41165 9.15892C8.40536 9.15211 8.39894 9.14542 8.39239 9.13886C8.27026 9.01674 8.10663 8.94505 7.93406 8.93806L7.93304 8.93802C7.92411 8.93767 7.91518 8.9375 7.90625 8.9375C7.73353 8.9375 7.56714 9.00251 7.44017 9.1196L4.92489 11.4392L3.9043 10.4953C3.77725 10.3778 3.61056 10.3125 3.4375 10.3125C3.42856 10.3125 3.41962 10.3127 3.41068 10.313C3.22848 10.3201 3.05657 10.3993 2.93277 10.5332C2.81527 10.6602 2.75 10.8269 2.75 11C2.75 11.0089 2.75017 11.0179 2.75052 11.0268C2.75764 11.209 2.83684 11.3809 2.9707 11.5047L4.45742 12.8797C4.72063 13.1232 5.12673 13.1235 5.39029 12.8804L8.37213 10.1306Z" fill="#262D34"/>
<path d="M8.37213 15.6306C8.37894 15.6243 8.38583 15.6177 8.39239 15.6111C8.51452 15.489 8.5862 15.3254 8.59319 15.1528L8.59323 15.1518C8.59358 15.1429 8.59375 15.1339 8.59375 15.125C8.59375 14.9523 8.52874 14.7859 8.41165 14.6589C8.40536 14.6521 8.39894 14.6454 8.39239 14.6389C8.27026 14.5167 8.10663 14.445 7.93406 14.4381L7.93304 14.438C7.92411 14.4377 7.91518 14.4375 7.90625 14.4375C7.73353 14.4375 7.56714 14.5025 7.44017 14.6196L4.92489 16.9392L3.9043 15.9953C3.77725 15.8778 3.61056 15.8125 3.4375 15.8125C3.42856 15.8125 3.41962 15.8127 3.41068 15.813C3.22848 15.8201 3.05657 15.8993 2.93277 16.0332C2.81527 16.1602 2.75 16.3269 2.75 16.5C2.75 16.5089 2.75017 16.5179 2.75052 16.5268C2.75764 16.709 2.83684 16.8809 2.9707 17.0047L4.45742 18.3797C4.72063 18.6232 5.12673 18.6235 5.39029 18.3804L8.37213 15.6306Z" fill="#262D34"/>
</svg>
