<svg width="32" height="32" viewBox="0 0 32 32" fill="none" xmlns="http://www.w3.org/2000/svg">
<path d="M30.1136 26.1478H1.99573C1.20205 26.1478 0.554688 25.5005 0.554688 24.7068V7.29456C0.554688 6.50088 1.20205 5.85352 1.99573 5.85352H30.1136C30.9073 5.85352 31.5547 6.50088 31.5547 7.29456V24.7068C31.5547 25.5005 30.9073 26.1478 30.1136 26.1478ZM1.99573 6.96201C1.81394 6.96201 1.66318 7.11276 1.66318 7.29456V24.7068C1.66318 24.8886 1.81394 25.0393 1.99573 25.0393H30.1136C30.2954 25.0393 30.4462 24.8886 30.4462 24.7068V7.29456C30.4462 7.11276 30.2954 6.96201 30.1136 6.96201H1.99573Z" fill="#303030"/>
<path d="M9.55469 9H4.55469V23H9.55469V9Z" fill="#303030"/>
<path d="M16.5547 9H14.5547V23H16.5547V9Z" fill="#303030"/>
<path d="M12.5547 9H11.5547V23H12.5547V9Z" fill="#303030"/>
<path d="M24.5547 9H18.5547V23H24.5547V9Z" fill="#303030"/>
<path d="M28.5547 9H26.5547V23H28.5547V9Z" fill="#303030"/>
</svg>
