<svg width="24" height="24" viewBox="0 0 24 24" fill="none" xmlns="http://www.w3.org/2000/svg">
<g id="LNB icon 5">
<path id="Vector" d="M20 2H4C3.44772 2 3 2.44772 3 3V21C3 21.5523 3.44772 22 4 22H20C20.5523 22 21 21.5523 21 21V3C21 2.44772 20.5523 2 20 2Z" fill="white"/>
<path id="Vector_2" d="M21 2.68757C21 2.30941 20.6906 2 20.3124 2H3.68757C3.30941 2 3 2.30941 3 2.68757V6.00854H21V2.68757Z" fill="#5D6772"/>
<path id="Vector_3" d="M15.0394 1H9.21914C9.09811 1 9 1.09756 9 1.21791V2.87837C9 2.99872 9.09811 3.09628 9.21914 3.09628H15.0394C15.1604 3.09628 15.2585 2.99872 15.2585 2.87837V1.21791C15.2585 1.09756 15.1604 1 15.0394 1Z" fill="#A1A7AE"/>
<path id="Vector_4" d="M9 14H7V19H9V14Z" fill="#5D6772"/>
<path id="Vector_5" d="M13 12H11V19H13V12Z" fill="#5D6772"/>
<path id="Vector_6" d="M17 9H15V19H17V9Z" fill="#A1A7AE"/>
</g>
</svg>
