<svg width="33" height="32" viewBox="0 0 33 32" fill="none" xmlns="http://www.w3.org/2000/svg">
<path d="M17.9343 27.3394C17.5538 27.3394 17.2461 27.0316 17.2461 26.6511C17.2461 26.2706 17.5538 25.9629 17.9343 25.9629H20.5978C20.9783 25.9629 21.2861 26.2706 21.2861 26.6511C21.2861 27.0316 20.9783 27.3394 20.5978 27.3394H17.9343Z" fill="#282828"/>
<path d="M26.1939 22.2866C26.1939 24.7487 24.7559 26.7407 22.2994 26.7407C21.7511 26.7407 21.2251 26.6399 20.7383 26.4609" stroke="#282828" stroke-width="1.5" stroke-linecap="round" stroke-linejoin="round"/>
<path d="M16.9946 28.9621C11.6341 28.9621 7.85156 24.62 7.85156 19.2595V14.604C7.85156 9.24349 11.6341 4.90137 16.9946 4.90137C22.3496 4.90137 26.1377 9.24349 26.1377 14.604V19.2595" stroke="#282828" stroke-width="1.5" stroke-linecap="round" stroke-linejoin="round"/>
<path d="M6.04883 13.1151C6.79863 7.43568 11.1128 3.0376 16.9937 3.0376C22.8746 3.0376 27.1887 7.43568 27.9385 13.1151" stroke="#282828" stroke-width="1.5" stroke-linecap="round" stroke-linejoin="round"/>
<path d="M19.9202 23.4784C19.0696 23.8869 18.1464 24.1107 17.1672 24.1107C16.1879 24.1107 15.2367 23.8757 14.375 23.4561" stroke="#282828" stroke-width="1.5" stroke-linecap="round" stroke-linejoin="round"/>
<path d="M7.87908 12.6675C5.56812 12.6675 3.69922 14.5364 3.69922 16.8473V18.5204C3.69922 20.8314 5.56812 22.7003 7.87908 22.7003V12.6675Z" fill="white" stroke="#282828" stroke-width="1.5" stroke-linecap="round" stroke-linejoin="round"/>
<path d="M26.1211 22.7003C28.432 22.7003 30.301 20.8314 30.301 18.5204V16.8473C30.301 14.5364 28.432 12.6675 26.1211 12.6675V22.7003Z" fill="white" stroke="#282828" stroke-width="1.5" stroke-linecap="round" stroke-linejoin="round"/>
<path d="M7.99023 16.2826C10.6033 14.604 11.1629 10.5024 11.1629 10.5024C11.1629 10.5024 16.4786 14.604 17.9726 14.5144C17.318 13.3953 16.1093 10.7822 16.1093 10.7822C16.1093 10.7822 20.8655 15.7231 25.6217 14.7942" stroke="#282828" stroke-width="1.5" stroke-linecap="round" stroke-linejoin="round"/>
</svg>
