<svg width="24" height="24" viewBox="0 0 24 24" fill="none" xmlns="http://www.w3.org/2000/svg">
<path d="M20.7351 1H3.2649C2.56631 1 2 1.49708 2 2.11025V21.8898C2 22.5029 2.56631 23 3.2649 23H20.7351C21.4337 23 22 22.5029 22 21.8898V2.11025C22 1.49708 21.4337 1 20.7351 1Z" fill="white"/>
<path d="M19 4H6V9H19V4Z" fill="#0076F3"/>
<path d="M9 12H6V15H9V12Z" fill="#262D34"/>
<path d="M14 12H11V15H14V12Z" fill="#262D34"/>
<path d="M19 12H16V15H19V12Z" fill="#262D34"/>
<path d="M9 17H6V20H9V17Z" fill="#262D34"/>
<path d="M14 17H11V20H14V17Z" fill="#262D34"/>
<path d="M16 17V18.7541V19.045V20H19V19.045V18.7541V17H16Z" fill="#262D34"/>
</svg>
