<svg width="16" height="16" viewBox="0 0 16 16" fill="none" xmlns="http://www.w3.org/2000/svg">
<path fill-rule="evenodd" clip-rule="evenodd" d="M2.66634 3.1665C2.20915 3.1665 1.83301 3.54265 1.83301 3.99984V11.9998C1.83301 12.457 2.20915 12.8332 2.66634 12.8332H13.333C13.7902 12.8332 14.1663 12.457 14.1663 11.9998V3.99984C14.1663 3.54265 13.7902 3.1665 13.333 3.1665H2.66634ZM0.833008 3.99984C0.833008 2.99036 1.65687 2.1665 2.66634 2.1665H13.333C14.3425 2.1665 15.1663 2.99036 15.1663 3.99984V11.9998C15.1663 13.0093 14.3425 13.8332 13.333 13.8332H2.66634C1.65687 13.8332 0.833008 13.0093 0.833008 11.9998V3.99984Z" fill="#828282"/>
<path fill-rule="evenodd" clip-rule="evenodd" d="M0.923435 3.71331C1.08179 3.48709 1.39356 3.43207 1.61978 3.59043L7.99972 8.05638L14.3797 3.59043C14.6059 3.43207 14.9176 3.48709 15.076 3.71331C15.2344 3.93954 15.1793 4.2513 14.9531 4.40966L8.28645 9.07633C8.11429 9.19684 7.88515 9.19684 7.71299 9.07633L1.04632 4.40966C0.820095 4.2513 0.765078 3.93954 0.923435 3.71331Z" fill="#828282"/>
</svg>
