<svg width="32" height="33" viewBox="0 0 32 33" fill="none" xmlns="http://www.w3.org/2000/svg">
<path fill-rule="evenodd" clip-rule="evenodd" d="M20.3909 6.63543C18.2652 5.68829 15.8903 5.45365 13.6204 5.96651C11.3505 6.47937 9.30717 7.71225 7.79518 9.48127C6.28318 11.2503 5.38354 13.4607 5.23043 15.7828C5.07731 18.1049 5.67892 20.4143 6.94553 22.3665C8.21214 24.3188 10.0759 25.8093 12.2588 26.6158C14.4417 27.4222 16.8269 27.5015 19.0585 26.8416C21.2902 26.1818 23.2487 24.8183 24.6421 22.9544C26.0355 21.0905 26.789 18.8262 26.7904 16.499V15.4262C26.7904 14.9429 27.1821 14.5512 27.6654 14.5512C28.1486 14.5512 28.5404 14.9429 28.5404 15.4262V16.4995C28.5388 19.204 27.6631 21.8361 26.0437 24.0022C24.4244 26.1684 22.1482 27.753 19.5547 28.5198C16.9612 29.2866 14.1893 29.1946 11.6523 28.2573C9.11543 27.32 6.94945 25.5878 5.47744 23.319C4.00544 21.0502 3.30627 18.3663 3.48422 15.6676C3.66217 12.969 4.70769 10.4002 6.46487 8.34426C8.22205 6.28837 10.5967 4.85556 13.2348 4.25953C15.8728 3.66351 18.6328 3.9362 21.1032 5.03693C21.5446 5.23362 21.743 5.7509 21.5463 6.19231C21.3496 6.63372 20.8323 6.83212 20.3909 6.63543Z" fill="#282828" stroke="#282828" stroke-width="0.3" stroke-linecap="round" stroke-linejoin="round"/>
<path fill-rule="evenodd" clip-rule="evenodd" d="M28.2851 6.54796C28.627 6.8895 28.6272 7.44352 28.2857 7.7854L16.619 19.4637C16.455 19.628 16.2324 19.7203 16.0002 19.7203C15.7681 19.7204 15.5454 19.6282 15.3813 19.464L11.8813 15.964C11.5396 15.6223 11.5396 15.0683 11.8813 14.7266C12.223 14.3849 12.777 14.3849 13.1187 14.7266L15.9997 17.6076L27.0476 6.54858C27.3892 6.2067 27.9432 6.20643 28.2851 6.54796Z" fill="#282828" stroke="#282828" stroke-width="0.5" stroke-linecap="round" stroke-linejoin="round"/>
</svg>
