<svg width="32" height="33" viewBox="0 0 32 33" fill="none" xmlns="http://www.w3.org/2000/svg">
<path d="M14.2759 5.50031L3.27588 24.5003C3.10059 24.8038 3.00806 25.1481 3.00781 25.4985C3.00757 25.8491 3.09937 26.1934 3.27393 26.4973C3.44873 26.8011 3.7002 27.0537 4.00317 27.2297C4.3064 27.4058 4.65039 27.4991 5.00073 27.5003H27.0007C27.3513 27.4991 27.6953 27.4058 27.9983 27.2297C28.3013 27.0537 28.5527 26.8011 28.7275 26.4973C28.9023 26.1934 28.9941 25.8491 28.9937 25.4985C28.9934 25.1481 28.9011 24.8038 28.7258 24.5003L17.7258 5.50031C17.5518 5.19641 17.3008 4.94385 16.9978 4.76819C16.6948 4.59253 16.3508 4.5 16.0007 4.5C15.6506 4.5 15.3066 4.59253 15.0037 4.76819C14.7009 4.94385 14.4497 5.19641 14.2759 5.50031Z" fill="#F5F5F5"/>
<path d="M15 14.5V18.5C15 19.0523 15.4477 19.5 16 19.5C16.5523 19.5 17 19.0523 17 18.5V14.5C17 13.9477 16.5523 13.5 16 13.5C15.4477 13.5 15 13.9477 15 14.5Z" fill="#4F4F4F"/>
<path fill-rule="evenodd" clip-rule="evenodd" d="M13.4103 4.99928C13.4103 4.99928 13.8091 4.30494 14.5021 3.9031C14.5021 3.9031 15.1972 3.5 16.0008 3.5C16.0008 3.5 16.8043 3.5 17.4994 3.9031C17.4994 3.9031 18.1946 4.3062 18.5937 5.00362L29.5912 23.9993C29.5912 23.9993 29.993 24.6952 29.9937 25.4977C29.9937 25.4977 29.9944 26.3001 29.5944 26.9957C29.5944 26.9957 29.1944 27.6914 28.5006 28.0944C28.5006 28.0944 27.8067 28.4975 27.0043 28.5003L5.00077 28.5003C5.00077 28.5003 4.19482 28.4975 3.50095 28.0944C3.50095 28.0944 2.80708 27.6914 2.40709 26.9957C2.40709 26.9957 2.0071 26.3001 2.00781 25.4977C2.00781 25.4977 2.00853 24.6952 2.40975 24.0003L13.4078 5.00361L13.4103 4.99928ZM4.14179 25.0003L15.1411 6.00159L15.1436 5.99714L15.1439 5.99657L15.1442 5.99617C15.1442 5.99617 15.276 5.76624 15.5054 5.63324C15.5054 5.63324 15.7352 5.5 16.0008 5.5C16.0008 5.5 16.2664 5.5 16.4961 5.63324C16.4961 5.63324 16.7259 5.76648 16.8578 5.99701L27.8603 25.0014C27.8603 25.0014 27.9935 25.232 27.9937 25.4994C27.9937 25.4994 27.994 25.7669 27.8606 25.9988C27.8606 25.9988 27.7273 26.2307 27.496 26.365C27.496 26.365 27.2647 26.4994 26.9972 26.5003L5.00077 26.5003C5.00077 26.5003 4.73681 26.4994 4.50553 26.365C4.50553 26.365 4.27424 26.2307 4.14091 25.9988C4.14091 25.9988 4.00758 25.7669 4.00781 25.4994C4.00781 25.4994 4.00805 25.232 4.14179 25.0003Z" fill="#4F4F4F"/>
<path d="M17.5 23C17.5 23.8284 16.8284 24.5 16 24.5C15.1716 24.5 14.5 23.8284 14.5 23C14.5 22.1716 15.1716 21.5 16 21.5C16.8284 21.5 17.5 22.1716 17.5 23Z" fill="#4F4F4F"/>
</svg>
