<svg width="33" height="33" viewBox="0 0 33 33" fill="none" xmlns="http://www.w3.org/2000/svg">
<path d="M12.332 12.5V14.5C12.332 15.5608 11.9106 16.5784 11.1605 17.3284C10.4103 18.0786 9.39288 18.5 8.33203 18.5C7.27118 18.5 6.25375 18.0786 5.5036 17.3284C4.75345 16.5784 4.33203 15.5608 4.33203 14.5V12.5" fill="#E7E7E7"/>
<path d="M28.332 12.5V14.5C28.332 15.5608 27.9106 16.5784 27.1605 17.3284C26.4103 18.0786 25.3929 18.5 24.332 18.5C23.2712 18.5 22.2538 18.0786 21.5036 17.3284C20.7534 16.5784 20.332 15.5608 20.332 14.5V12.5" fill="#E7E7E7"/>
<path d="M27.332 26.5002V17.9502C27.332 17.3979 26.8843 16.9502 26.332 16.9502C25.7797 16.9502 25.332 17.3979 25.332 17.9502V26.5002H7.33203V17.9502C7.33203 17.3979 6.88432 16.9502 6.33203 16.9502C5.77975 16.9502 5.33203 17.3979 5.33203 17.9502V26.5002C5.33203 27.3286 5.91782 27.9144 5.91782 27.9144C6.5036 28.5002 7.33203 28.5002 7.33203 28.5002H25.332C26.1605 28.5002 26.7462 27.9144 26.7462 27.9144C27.332 27.3286 27.332 26.5002 27.332 26.5002Z" fill="#282828"/>
<path fill-rule="evenodd" clip-rule="evenodd" d="M25.5905 4.50003L7.08251 4.5L7.07406 4.50003C7.07406 4.50003 6.41012 4.5055 5.87978 4.90497C5.87978 4.90497 5.34945 5.30445 5.16094 5.94108L3.37055 12.226C3.21924 12.7572 3.52717 13.3104 4.05833 13.4617C4.14743 13.4871 4.23964 13.5 4.33229 13.5H28.3323C28.8846 13.5 29.3323 13.0523 29.3323 12.5C29.3323 12.4073 29.3194 12.3151 29.294 12.226L27.5065 5.95104C27.5065 5.95104 27.3151 5.30445 26.7848 4.90497C26.7848 4.90497 26.2544 4.5055 25.5905 4.50003ZM7.0831 6.50248C7.0831 6.50248 7.08605 6.50026 7.08967 6.5L25.5741 6.49997C25.5741 6.49997 25.5782 6.5 25.5815 6.50248L25.5833 6.50313C25.5833 6.50313 25.5841 6.50265 25.5831 6.49906L27.0076 11.5H5.65692L7.07864 6.50892C7.07864 6.50892 7.07981 6.50496 7.0831 6.50248Z" fill="#282828"/>
<path d="M6.21071 16.6213C5.33203 15.7426 5.33203 14.5 5.33203 14.5V12.5C5.33203 11.9477 4.88432 11.5 4.33203 11.5C3.77975 11.5 3.33203 11.9477 3.33203 12.5V14.5C3.33203 16.5711 4.7965 18.0355 4.7965 18.0355C6.26096 19.5 8.33203 19.5 8.33203 19.5C10.4031 19.5 11.8676 18.0355 11.8676 18.0355C13.332 16.5711 13.332 14.5 13.332 14.5V12.5C13.332 11.9477 12.8843 11.5 12.332 11.5C11.7797 11.5 11.332 11.9477 11.332 12.5V14.5C11.332 15.7426 10.4534 16.6213 10.4534 16.6213C9.57467 17.5 8.33203 17.5 8.33203 17.5C7.08939 17.5 6.21071 16.6213 6.21071 16.6213Z" fill="#282828"/>
<path d="M14.2107 16.6213C13.332 15.7426 13.332 14.5 13.332 14.5V12.5C13.332 11.9477 12.8843 11.5 12.332 11.5C11.7797 11.5 11.332 11.9477 11.332 12.5V14.5C11.332 16.5711 12.7965 18.0355 12.7965 18.0355C14.261 19.5 16.332 19.5 16.332 19.5C18.4031 19.5 19.8676 18.0355 19.8676 18.0355C21.332 16.5711 21.332 14.5 21.332 14.5V12.5C21.332 11.9477 20.8843 11.5 20.332 11.5C19.7797 11.5 19.332 11.9477 19.332 12.5V14.5C19.332 15.7426 18.4534 16.6213 18.4534 16.6213C17.5747 17.5 16.332 17.5 16.332 17.5C15.0894 17.5 14.2107 16.6213 14.2107 16.6213Z" fill="#282828"/>
<path d="M22.2107 16.6213C21.332 15.7426 21.332 14.5 21.332 14.5V12.5C21.332 11.9477 20.8843 11.5 20.332 11.5C19.7797 11.5 19.332 11.9477 19.332 12.5V14.5C19.332 16.5711 20.7965 18.0355 20.7965 18.0355C22.261 19.5 24.332 19.5 24.332 19.5C26.4031 19.5 27.8676 18.0355 27.8676 18.0355C29.332 16.5711 29.332 14.5 29.332 14.5V12.5C29.332 11.9477 28.8843 11.5 28.332 11.5C27.7797 11.5 27.332 11.9477 27.332 12.5V14.5C27.332 15.7426 26.4534 16.6213 26.4534 16.6213C25.5747 17.5 24.332 17.5 24.332 17.5C23.0894 17.5 22.2107 16.6213 22.2107 16.6213Z" fill="#282828"/>
</svg>
