<svg width="20" height="20" viewBox="0 0 20 20" fill="none" xmlns="http://www.w3.org/2000/svg">
<path d="M9.04639 2.5C5.43814 2.5 2.5 5.43814 2.5 9.04639C2.5 12.6546 5.43814 15.5928 9.04639 15.5928C10.4897 15.5928 11.9137 15.1031 13.0541 14.2139L13.0992 14.1817L16.192 17.268C16.3338 17.4098 16.5271 17.4936 16.7332 17.4936C16.9394 17.4936 17.1263 17.4162 17.2745 17.268C17.4162 17.1263 17.5 16.933 17.5 16.7268C17.5 16.5206 17.4227 16.3338 17.2745 16.1856L14.1817 13.0928L14.2139 13.0477C15.1031 11.9072 15.5992 10.4832 15.5992 9.03995C15.5992 5.43814 12.6611 2.5 9.04639 2.5ZM9.04639 14.0722C6.27577 14.0722 4.02062 11.817 4.02062 9.04639C4.02062 6.27577 6.27577 4.02062 9.04639 4.02062C11.817 4.02062 14.0722 6.27577 14.0722 9.04639C14.0722 11.817 11.817 14.0722 9.04639 14.0722Z" fill="#5D6772"/>
</svg>
