<svg width="16" height="17" viewBox="0 0 16 17" fill="none" xmlns="http://www.w3.org/2000/svg">
<path fill-rule="evenodd" clip-rule="evenodd" d="M3.09449 10.9275C3.68835 10.3336 4.49381 10 5.33366 10H10.667C11.5068 10 12.3123 10.3336 12.9062 10.9275C13.5 11.5214 13.8337 12.3268 13.8337 13.1667V14.5C13.8337 14.7761 13.6098 15 13.3337 15C13.0575 15 12.8337 14.7761 12.8337 14.5V13.1667C12.8337 12.592 12.6054 12.0409 12.1991 11.6346C11.7927 11.2283 11.2416 11 10.667 11H5.33366C4.75902 11 4.20792 11.2283 3.80159 11.6346C3.39527 12.0409 3.16699 12.592 3.16699 13.1667V14.5C3.16699 14.7761 2.94313 15 2.66699 15C2.39085 15 2.16699 14.7761 2.16699 14.5V13.1667C2.16699 12.3268 2.50062 11.5214 3.09449 10.9275Z" fill="#828282"/>
<path fill-rule="evenodd" clip-rule="evenodd" d="M7.99967 3C6.80306 3 5.83301 3.97005 5.83301 5.16667C5.83301 6.36328 6.80306 7.33333 7.99967 7.33333C9.19629 7.33333 10.1663 6.36328 10.1663 5.16667C10.1663 3.97005 9.19629 3 7.99967 3ZM4.83301 5.16667C4.83301 3.41777 6.25077 2 7.99967 2C9.74858 2 11.1663 3.41777 11.1663 5.16667C11.1663 6.91557 9.74858 8.33333 7.99967 8.33333C6.25077 8.33333 4.83301 6.91557 4.83301 5.16667Z" fill="#828282"/>
</svg>
