<svg width="32" height="32" viewBox="0 0 32 32" fill="none" xmlns="http://www.w3.org/2000/svg">
<g clip-path="url(#clip0_2278_2208)">
<path d="M29.4221 0H2.57792C1.15417 0 0 1.15417 0 2.57792V29.4221C0 30.8458 1.15417 32 2.57792 32H29.4221C30.8458 32 32 30.8458 32 29.4221V2.57792C32 1.15417 30.8458 0 29.4221 0Z" fill="#FAE300"/>
<path d="M16 7.38086C10.477 7.38086 6 10.9582 6 15.3713C6 18.2439 7.89711 20.761 10.7438 22.1695C10.5345 22.9591 9.98643 25.029 9.8766 25.472C9.74139 26.0218 10.0761 26.0145 10.2952 25.8663C10.4672 25.7506 13.0357 23.986 14.1438 23.2241C14.7453 23.3142 15.3654 23.3618 16 23.3618C21.523 23.3618 26 19.7839 26 15.3713C26 10.9588 21.523 7.38086 16 7.38086Z" fill="#391B1B"/>
<path d="M11.8847 13.0952H8.68668C8.38586 13.0952 8.14282 13.3187 8.14282 13.5942C8.14282 13.8697 8.38643 14.0932 8.68668 14.0932H9.72624V17.6082C9.72624 17.736 9.78289 17.8618 9.8826 17.9528C9.98004 18.0432 10.1166 18.0952 10.2565 18.0952H10.3726C10.512 18.0952 10.648 18.0432 10.746 17.9528C10.8457 17.8618 10.9023 17.7365 10.9023 17.6082V14.0932H11.8841C12.1849 14.0932 12.4285 13.8697 12.4285 13.5942C12.4285 13.3187 12.1849 13.0952 11.8841 13.0952H11.8847Z" fill="#FAE300"/>
<path d="M19.1254 17.1959H17.7808V13.6328C17.7808 13.3356 17.5421 13.0952 17.2476 13.0952C16.953 13.0952 16.7144 13.3356 16.7144 13.6328V17.4735C16.7144 17.5034 16.7179 17.5313 16.7225 17.5597C16.7174 17.5875 16.7144 17.6164 16.7144 17.6453C16.7144 17.894 16.9136 18.0952 17.1605 18.0952H19.1254C19.3728 18.0952 19.5715 17.894 19.5715 17.6453C19.5715 17.3966 19.3722 17.1959 19.1254 17.1959Z" fill="#FAE300"/>
<path d="M23.0493 17.3303L21.5822 15.3616L22.9078 14.0068C23.0874 13.8239 23.0874 13.5262 22.9078 13.3427C22.7283 13.1593 22.4374 13.1593 22.2573 13.3427L20.6163 15.0193V13.6292C20.6163 13.334 20.3825 13.0952 20.0941 13.0952C19.8058 13.0952 19.5715 13.334 19.5715 13.6292V17.5609C19.5715 17.8561 19.8053 18.0949 20.0941 18.0949C20.383 18.0949 20.6163 17.8566 20.6163 17.5609V16.348L20.9147 16.0437L22.3025 17.9043C22.4569 18.1149 22.7503 18.1584 22.9565 17.9991C23.1626 17.8407 23.2043 17.5415 23.0493 17.3303Z" fill="#FAE300"/>
<path d="M15.9731 17.4583L14.5437 13.5149C14.5437 13.5149 14.5402 13.5118 14.5391 13.5103C14.4477 13.2699 14.1839 13.0952 13.8694 13.0952C13.5203 13.0952 13.2317 13.3104 13.1743 13.5917C13.1646 13.6127 13.155 13.6337 13.1468 13.6563L11.7413 17.4583C11.6544 17.7078 11.7845 17.9804 12.031 18.068C12.2779 18.1556 12.5488 18.0245 12.6356 17.7754L12.879 17.0755H14.8354L15.0783 17.7754C15.1652 18.0245 15.436 18.1556 15.683 18.068C15.9299 17.9804 16.06 17.7078 15.9731 17.4583ZM13.1895 16.1814L13.8471 14.2896C13.8547 14.2896 13.8608 14.2917 13.8684 14.2917L14.5254 16.1814H13.19H13.1895Z" fill="#FAE300"/>
</g>
<defs>
<clipPath id="clip0_2278_2208">
<rect width="32" height="32" rx="16" fill="white"/>
</clipPath>
</defs>
</svg>
