<svg width="16" height="16" viewBox="0 0 16 16" fill="none" xmlns="http://www.w3.org/2000/svg">
<path d="M12.2929 11L9.64663 13.6463C9.55287 13.74 9.5 13.8674 9.5 14C9.5 14.008 9.50019 14.016 9.50058 14.024C9.50655 14.1482 9.55855 14.2657 9.64645 14.3536C9.74021 14.4473 9.86739 14.5 10 14.5C10.1326 14.5 10.2598 14.4473 10.3536 14.3536L13.3536 11.3536C13.4473 11.2598 13.5 11.1326 13.5 11C13.5 10.8674 13.4473 10.7402 13.3536 10.6464L10.3536 7.64651C10.2598 7.55268 10.1326 7.5 10 7.5C9.86739 7.5 9.74021 7.55268 9.64645 7.64645C9.55268 7.74021 9.5 7.86739 9.5 8C9.5 8.13261 9.55268 8.25979 9.64645 8.35355L12.2929 11Z" fill="#828282"/>
<path d="M4 11.5H13C13.2761 11.5 13.5 11.2761 13.5 11C13.5 10.7239 13.2761 10.5 13 10.5H4.5V2C4.5 1.72386 4.27614 1.5 4 1.5C3.72386 1.5 3.5 1.72386 3.5 2V11C3.5 11.2761 3.72386 11.5 4 11.5Z" fill="#828282"/>
</svg>
