<svg width="24" height="24" viewBox="0 0 24 24" fill="none" xmlns="http://www.w3.org/2000/svg">
<g id="LNB icon 1">
<path id="Vector" d="M23 4.46101C23 4.08284 22.6906 3.77344 22.3124 3.77344H1.68757C1.30941 3.77344 1 4.08284 1 4.46101V7.78198H23V4.46101Z" fill="#5D6772"/>
<path id="Vector_2" d="M1 7.78223V20.8598C1 21.238 1.30941 21.5474 1.68757 21.5474H22.3124C22.6906 21.5474 23 21.238 23 20.8598V7.78223H1Z" fill="white"/>
<path id="Vector_3" d="M10.4886 17.7685C10.6857 17.9862 10.9653 18.11 11.2563 18.11C11.2793 18.11 11.3022 18.11 11.3274 18.1077C11.6437 18.0871 11.9325 17.9198 12.1135 17.6585L16.2023 11.672C16.5254 11.1999 16.404 10.5536 15.9318 10.2327C15.4597 9.90955 14.8134 10.031 14.4902 10.5031L11.1418 15.4032L9.41824 13.4987C9.0332 13.0747 8.37771 13.0403 7.95371 13.4253C7.52971 13.8081 7.49533 14.4659 7.88037 14.8899L10.4863 17.7685H10.4886Z" fill="#A1A7AE"/>
<path id="Vector_4" d="M6.0855 2H5.03352C4.75504 2 4.5293 2.22575 4.5293 2.50422V4.67007C4.5293 4.94854 4.75504 5.17429 5.03352 5.17429H6.0855C6.36397 5.17429 6.58972 4.94854 6.58972 4.67007V2.50422C6.58972 2.22575 6.36397 2 6.0855 2Z" fill="#A1A7AE"/>
<path id="Vector_5" d="M12.5259 2H11.4739C11.1955 2 10.9697 2.22575 10.9697 2.50422V4.67007C10.9697 4.94854 11.1955 5.17429 11.4739 5.17429H12.5259C12.8044 5.17429 13.0301 4.94854 13.0301 4.67007V2.50422C13.0301 2.22575 12.8044 2 12.5259 2Z" fill="#A1A7AE"/>
<path id="Vector_6" d="M18.9664 2H17.9144C17.6359 2 17.4102 2.22575 17.4102 2.50422V4.67007C17.4102 4.94854 17.6359 5.17429 17.9144 5.17429H18.9664C19.2448 5.17429 19.4706 4.94854 19.4706 4.67007V2.50422C19.4706 2.22575 19.2448 2 18.9664 2Z" fill="#A1A7AE"/>
</g>
</svg>
