<svg width="24" height="24" viewBox="0 0 24 24" fill="none" xmlns="http://www.w3.org/2000/svg">
<g id="LNB icon 3">
<path id="Vector" d="M2.8837 23.2776C1.84361 23.2776 1 22.434 1 21.3939V21.3982V1H18.8695V21.4003V21.3961C18.8695 22.4362 18.8695 23.2798 18.8695 23.2798H2.8837V23.2776Z" fill="white"/>
<path id="Vector_2" d="M13.2545 5.125H4.56641V6.13733H13.2545V5.125Z" fill="#5D6772"/>
<path id="Vector_3" d="M9.35895 14.748H4.56641V15.7604H9.35895V14.748Z" fill="#5D6772"/>
<path id="Vector_4" d="M9.35895 16.6797H4.56641V17.692H9.35895V16.6797Z" fill="#5D6772"/>
<path id="Vector_5" d="M19.0702 23.2781C20.0121 23.2781 20.7767 22.4345 20.7767 21.3944V20.002H4.58583V21.3944C4.58583 22.4345 3.82124 23.2781 2.87939 23.2781H19.0702Z" fill="#5D6772"/>
<path id="Vector_6" d="M22.2908 17.7193C22.0965 17.7193 21.9021 17.6403 21.7633 17.4843L19.9586 15.4725C19.696 15.182 19.7216 14.7335 20.012 14.4709C20.3046 14.2082 20.751 14.2338 21.0137 14.5242L22.8184 16.5361C23.0811 16.8265 23.0554 17.275 22.765 17.5377C22.6304 17.6595 22.4596 17.7193 22.2908 17.7193Z" fill="#A1A7AE"/>
<path id="Vector_7" d="M17.9617 16.6593C15.4629 16.6593 13.4297 14.6261 13.4297 12.1295C13.4297 9.63281 15.4629 7.59961 17.9617 7.59961C20.4605 7.59961 22.4915 9.63281 22.4915 12.1295C22.4915 14.6261 20.4605 16.6593 17.9617 16.6593ZM17.9617 9.01772C16.2446 9.01772 14.8499 10.4145 14.8499 12.1295C14.8499 13.8444 16.2467 15.2412 17.9617 15.2412C19.6767 15.2412 21.0734 13.8444 21.0734 12.1295C21.0734 10.4145 19.6767 9.01772 17.9617 9.01772Z" fill="#A1A7AE"/>
</g>
</svg>
