<svg width="22" height="22" viewBox="0 0 22 22" fill="none" xmlns="http://www.w3.org/2000/svg">
<path d="M15.8125 4.125V6.875C15.8125 7.2547 16.1203 7.5625 16.5 7.5625C16.8797 7.5625 17.1875 7.2547 17.1875 6.875V3.4375C17.1875 3.0578 16.8797 2.75 16.5 2.75H5.5C5.1203 2.75 4.8125 3.0578 4.8125 3.4375V6.875C4.8125 7.2547 5.1203 7.5625 5.5 7.5625C5.8797 7.5625 6.1875 7.2547 6.1875 6.875V4.125H15.8125Z" fill="#262D34"/>
<path fill-rule="evenodd" clip-rule="evenodd" d="M4.8125 18.9062V13.0625C4.8125 12.6828 5.1203 12.375 5.5 12.375H16.5C16.8797 12.375 17.1875 12.6828 17.1875 13.0625V18.9062C17.1875 19.2859 16.8797 19.5938 16.5 19.5938H5.5C5.1203 19.5938 4.8125 19.2859 4.8125 18.9062ZM15.8125 18.2188H6.1875V13.75H15.8125V18.2188Z" fill="#262D34"/>
<path d="M18.9062 14.4375H16.5C16.1203 14.4375 15.8125 14.7453 15.8125 15.125C15.8125 15.5047 16.1203 15.8125 16.5 15.8125H19.5938C19.9734 15.8125 20.2812 15.5047 20.2812 15.125V8.25C20.2812 7.38228 19.6232 6.77404 19.6232 6.77404C18.9886 6.1875 18.107 6.1875 18.107 6.1875H3.89297C3.01138 6.1875 2.37681 6.77404 2.37681 6.77404C1.71875 7.38228 1.71875 8.25 1.71875 8.25V15.125C1.71875 15.5047 2.02655 15.8125 2.40625 15.8125H5.5C5.8797 15.8125 6.1875 15.5047 6.1875 15.125C6.1875 14.7453 5.8797 14.4375 5.5 14.4375H3.09375V8.25C3.09375 7.98376 3.31011 7.78377 3.31011 7.78377C3.54951 7.5625 3.89297 7.5625 3.89297 7.5625H18.107C18.4505 7.5625 18.6899 7.78377 18.6899 7.78377C18.9062 7.98376 18.9062 8.25 18.9062 8.25V14.4375Z" fill="#262D34"/>
<path d="M17.1875 9.96875C17.1875 10.5383 16.7258 11 16.1562 11C15.5867 11 15.125 10.5383 15.125 9.96875C15.125 9.39925 15.5867 8.9375 16.1562 8.9375C16.7258 8.9375 17.1875 9.39925 17.1875 9.96875Z" fill="#262D34"/>
</svg>
