<svg width="800" height="301" viewBox="0 0 800 301" fill="none" xmlns="http://www.w3.org/2000/svg">
<path d="M674.143 300.196C596.205 300.055 547.864 243.821 548.146 148.829C548.428 53.556 596.346 0 674.143 0C751.8 0 800.141 53.8379 800 148.829C799.859 244.244 751.8 300.337 674.143 300.196ZM674.143 238.324C701.908 238.324 721.498 210.278 721.498 148.829C721.357 88.6493 701.908 61.3076 674.143 61.3076C646.238 61.3076 627.07 88.6493 626.789 148.829C626.507 210.278 646.238 238.324 674.143 238.324Z" fill="#EDF0F3"/>
<path d="M387.162 300.196C309.224 300.055 260.882 243.821 261.164 148.829C261.446 53.556 309.365 0 387.162 0C464.818 0 513.159 53.8379 513.019 148.829C512.878 244.244 464.818 300.337 387.162 300.196ZM387.162 238.324C414.926 238.324 434.517 210.278 434.517 148.829C434.376 88.6493 414.926 61.3076 387.162 61.3076C359.256 61.3076 340.089 88.6493 339.807 148.829C339.525 210.278 359.256 238.324 387.162 238.324Z" fill="#EDF0F3"/>
<path d="M113.313 296.531C47.4957 296.531 0.563749 258.76 0 205.486H73.71C74.4147 225.781 91.8909 238.888 113.313 238.888C137.977 238.888 155.312 221.834 155.172 195.902C155.312 169.97 137.977 152.916 113.172 152.916C93.4412 152.916 80.7569 161.232 73.8509 175.607H6.20122L18.8855 3.94598H210.701V64.8307H81.1797L75.2603 129.662H76.9516C86.2534 112.608 109.649 100.065 138.541 100.065C190.124 100.065 228.6 138.823 228.459 193.788C228.6 253.968 182.795 296.531 113.313 296.531Z" fill="#EDF0F3"/>
</svg>
