<svg width="120" height="" viewBox="0 0 682 388" fill="none" xmlns="http://www.w3.org/2000/svg">
<path fill-rule="evenodd" clip-rule="evenodd" d="M586.225 225.188C557.36 228.07 533.195 203.848 536.089 174.905C538.209 153.473 555.507 136.151 576.871 134.008C605.754 131.116 629.938 155.357 627.044 184.309C624.887 205.742 607.597 223.054 586.216 225.188M583.939 87.3741C565.461 86.9122 548.162 91.9284 533.545 100.926V95.208C533.545 94.0255 532.605 93.0832 531.425 93.0832H491.657C490.478 93.0832 489.538 94.0255 489.538 95.208V349.496C489.538 350.669 490.487 351.621 491.657 351.621H531.435C532.605 351.621 533.545 350.669 533.545 349.496V258.251C547.535 266.87 563.977 271.84 581.562 271.84C632.361 271.84 673.678 230.371 673.586 179.413C673.493 129.832 633.394 88.6304 583.939 87.3741ZM428.803 271.942H468.691C469.861 271.942 470.81 270.99 470.81 269.817V95.3096C470.81 94.1363 469.861 93.1848 468.691 93.1848H428.803C427.632 93.1848 426.683 94.1363 426.683 95.3096V269.817C426.683 270.99 427.632 271.942 428.803 271.942ZM430.517 77.1105L477.658 52.0753C479.51 51.0961 479.51 48.4262 477.658 47.4562L430.517 22.421C428.784 21.4972 426.683 22.7536 426.683 24.7305V74.801C426.683 76.7687 428.784 78.0343 430.517 77.1105Z" fill="black"/>
<path fill-rule="evenodd" clip-rule="evenodd" d="M116.299 337.218C111.664 329.467 107.848 321.162 104.917 312.95C104.604 312.118 103.811 311.564 102.936 311.564H59.6012C58.1266 311.564 57.0944 313.014 57.6013 314.4C64.4213 333.061 75.748 359.02 89.1576 370.06C98.6503 376.268 109.175 379.76 120.235 379.76C130.926 379.76 141.091 376.508 150.335 370.688C136.741 364.646 125.101 351.962 116.299 337.218Z" fill="#00C784"/>
<path fill-rule="evenodd" clip-rule="evenodd" d="M409.596 99.0601L408.859 98.6167C393.588 89.4155 376.104 84.5378 358.188 84.5378C338.078 84.5378 319.286 90.7273 303.61 101.277V95.3648C303.61 94.1916 302.651 93.2401 301.49 93.2401H261.602C260.432 93.2401 259.482 94.1916 259.482 95.3648V269.817C259.482 270.99 260.432 271.942 261.602 271.942H301.49C302.651 271.942 303.61 270.99 303.61 269.817V184.67C303.61 157.51 322.899 133.611 349.663 129.426C362.372 127.44 375.1 129.998 385.938 136.428C386.159 136.567 386.39 136.687 386.62 136.816C386.961 136.964 387.339 137.038 387.726 137.038C388.675 137.038 389.514 136.594 390.067 135.902L390.5 135.2L410.158 103.18L410.343 102.857C410.582 102.423 410.73 101.942 410.73 101.416C410.73 100.455 410.269 99.6236 409.596 99.0693M194.139 184.3C191.992 205.732 174.702 223.054 153.33 225.188C124.456 228.07 100.291 203.839 103.185 174.905C105.314 153.472 122.603 136.16 143.985 134.017C172.859 131.116 197.033 155.348 194.139 184.3ZM240.792 253.918L240.773 250.297V206.628L240.764 181.713V157.048L240.755 134.405V95.5588C240.755 94.3856 239.797 93.4341 238.626 93.4341H198.858C197.688 93.4341 196.729 94.3856 196.729 95.5588V100.972C182.112 91.956 164.804 86.912 146.326 87.3739C96.8438 88.621 56.7256 129.823 56.6335 179.422C56.5413 230.37 97.8668 271.84 148.657 271.84C166.27 271.84 182.739 266.852 196.729 258.214C196.729 272.986 196.48 287.425 193.439 301.966C190.711 314.982 186.739 327.721 179.67 339.066C174.564 347.158 168.703 355.159 161.754 361.755C158.15 365.191 154.335 368.175 150.344 370.688C141.091 376.508 130.925 379.741 120.225 379.741C109.166 379.741 98.6594 376.268 89.1483 370.06C94.1527 374.106 99.4889 377.672 105.074 380.73C108.244 382.023 111.479 383.168 114.806 384.12L115.046 384.194C118.041 385.053 121.101 385.764 124.198 386.346L125.534 386.587C126.363 386.725 127.211 386.864 128.05 386.984C128.87 387.104 129.69 387.196 130.511 387.298C131.423 387.409 132.345 387.51 133.266 387.575C134.225 387.667 135.192 387.751 136.169 387.806C136.695 387.843 137.211 387.871 137.745 387.889C139.128 387.945 140.529 387.982 141.92 387.982C141.976 387.982 142.031 388 142.151 388C143.828 388 145.496 387.954 147.146 387.871H147.256C148.86 387.778 150.464 387.658 152.049 387.501C153.358 387.363 154.657 387.187 155.947 387.002C156.242 386.965 156.528 386.938 156.814 386.891C167.532 385.256 177.956 381.866 187.568 376.84C197.015 371.898 205.66 365.413 213.06 357.717C217.576 353.025 221.613 347.888 225.124 342.41C241.981 313.864 240.755 274.63 240.755 274.63L240.792 274.815V253.918ZM145.275 0.11084H138.308C137.985 0.11084 137.736 0.369506 137.736 0.683602V8.34198C137.736 8.65608 137.985 8.91474 138.308 8.91474H141.303L141.395 8.99789V9.03484C141.358 10.2727 141.1 11.3444 140.63 12.2127C140.178 13.0257 139.367 13.6816 138.234 14.1435C137.93 14.2636 137.736 14.5592 137.736 14.901V17.5986C137.736 17.7556 137.791 17.9034 137.92 18.005C138.022 18.0882 138.142 18.1344 138.252 18.1344L138.354 18.1251C139.321 17.9496 140.252 17.6263 141.1 17.1551C142.086 16.6193 142.943 15.9265 143.653 15.1043C144.363 14.2821 144.925 13.3121 145.312 12.2312C145.708 11.1411 145.883 9.96789 145.846 8.74846V0.683602C145.846 0.369506 145.588 0.11084 145.275 0.11084ZM187.024 43.3174C186.868 39.8069 185.854 37.3404 183.762 35.2803C181.375 32.9523 177.384 31.1231 171.219 29.5434L170.951 29.4787C164.408 27.7974 161.956 27.16 161.956 24.6472C161.956 22.3377 164.039 20.9797 167.505 20.9797C171.652 20.9797 175.882 22.3007 179.744 24.7858C180.195 25.0629 180.914 24.9521 181.163 24.5456L185.476 17.9126C185.716 17.5246 185.605 16.8965 185.209 16.6193C180.149 13.0719 173.781 10.864 168.601 10.864C157.394 10.864 150.169 16.5269 150.169 25.2939C150.169 32.6566 154.869 37.0909 165.412 39.6868C173.477 41.6268 175.218 42.5876 175.218 45.0819C175.218 47.5762 172.896 49.0173 168.859 49.0173C163.514 49.0173 158.353 47.3545 153.487 44.1119C153.275 43.9641 153.007 43.9179 152.749 43.9733C152.501 44.0287 152.196 44.3244 152.086 44.5184L148.178 51.1144C147.911 51.5763 147.938 52.343 148.362 52.6479C154.021 56.7126 161.081 59.1515 167.246 59.1515C175.587 59.1515 181.9 56.4078 185.061 51.41C186.471 49.1651 187.163 46.366 187.024 43.3174Z" fill="black"/>
<mask id="mask0_9022_4192" style="mask-type:luminance" maskUnits="userSpaceOnUse" x="0" y="0" width="45" height="60">
<path d="M0 0H44.2286V59.1515H0V0Z" fill="white"/>
</mask>
<g mask="url(#mask0_9022_4192)">
<path fill-rule="evenodd" clip-rule="evenodd" d="M38.2104 48.6385C38.063 48.3983 37.639 48.2321 37.3441 48.2321H27.3998C23.2064 48.2321 19.2158 46.4306 16.1837 43.1881C13.2529 40.0471 11.5664 35.8438 11.5664 31.6404V1.15472C11.5664 0.517294 11.0595 -0.00927734 10.4143 -0.00927734H1.15203C0.516108 -3.9248e-05 0 0.517294 0 1.14548V31.3171C0 31.8344 0.00921621 32.361 0.0460811 32.8876C0.350216 39.576 3.11508 45.9318 7.843 50.791C12.5617 55.6502 18.8195 58.5972 25.4644 59.0776C26.1372 59.1238 26.8376 59.1515 27.5104 59.1515H43.2241C43.6019 59.1515 43.9245 58.9667 44.1088 58.6249C44.2747 58.3016 44.2655 57.9136 44.0627 57.6087L38.2104 48.6385Z" fill="black"/>
</g>
<path fill-rule="evenodd" clip-rule="evenodd" d="M79.2594 28.0377H56.0898L56.2465 27.7975L56.3018 27.7051L56.3571 27.6404L56.3663 27.622C56.394 27.5573 56.4401 27.4926 56.4861 27.4372L56.6152 27.2524L56.6889 27.1508C56.8271 26.9476 56.9654 26.7721 57.0944 26.615C58.016 25.451 59.122 24.4625 60.3569 23.6588C62.5412 22.2546 65.0572 21.5156 67.647 21.5156C70.2644 21.5156 72.8081 22.2546 74.9739 23.6588C76.2181 24.4625 77.3148 25.451 78.2456 26.615L78.6511 27.1508L78.7249 27.2709L78.8355 27.428L78.9737 27.6127L78.9829 27.6497L79.0382 27.7144L79.0843 27.7975L79.241 28.0377H79.2594ZM90.5954 27.9268C88.9641 22.7073 85.5449 18.1344 80.9736 15.0674L80.5497 14.781L80.476 14.7441C78.6972 13.6078 76.7895 12.7117 74.808 12.0927L74.6513 12.0465L74.0522 11.8618L73.7112 11.7694L73.2873 11.6678L72.8265 11.5662L72.5039 11.4923L71.951 11.3906L71.7113 11.3444L71.0754 11.2428L70.9003 11.2244L70.2275 11.132L70.0708 11.1227L69.3796 11.0673L69.1953 11.0581C68.9833 11.0396 68.7529 11.0211 68.5317 11.0211L68.2 11.0119L67.6931 11.0026H67.1585C67.0479 11.0026 66.9373 11.0026 66.8267 11.0211L66.1632 11.0488L65.9881 11.0673C65.7484 11.0673 65.5272 11.1043 65.2876 11.1227L65.1402 11.1412C64.9098 11.1597 64.6886 11.1874 64.4674 11.2244L64.2831 11.2428L63.6564 11.3352L63.4167 11.3906L62.8638 11.483L62.5504 11.5662L62.0896 11.6585L61.6472 11.7786L61.3154 11.871L60.7164 12.0465L60.5597 12.0927C58.5874 12.7117 56.7073 13.5708 54.9562 14.6794L54.8825 14.7441L54.3848 15.0674C47.9335 19.4093 43.9244 26.5965 43.6756 34.2826L43.6479 34.6891L43.6572 35.6314L43.6664 35.6591L43.6756 35.8624C43.9244 43.5577 47.9243 50.7357 54.3848 55.0776C58.3294 57.7474 62.9283 59.1424 67.6562 59.1424C71.951 59.1424 76.1812 57.9876 79.8861 55.7704C80.393 55.4379 80.2087 54.8097 80.1073 54.6064L75.5914 47.2437C75.1398 46.5046 74.2827 46.8926 74.2734 46.8926C73.0292 47.5947 71.7113 48.0936 70.3565 48.3707C69.4626 48.5555 68.5594 48.6386 67.6562 48.6386C63.5365 48.6386 59.6934 46.7818 57.1036 43.5484C56.0253 42.1997 55.2327 40.6846 54.7258 39.0403C54.7074 38.9664 54.7258 38.874 54.7719 38.8093C54.818 38.7446 54.8917 38.6984 54.9747 38.6984H90.1069C90.8811 38.6984 91.5078 38.1257 91.5815 37.3682C91.6276 36.8601 91.6737 36.352 91.6829 35.8624L91.7105 35.4651L91.6829 34.2919C91.6091 32.1302 91.2497 29.9962 90.5954 27.9268ZM136.105 54.1353L131.331 46.3476C131.184 46.1166 130.99 45.9781 130.75 45.9134C130.262 45.821 129.764 46.1444 129.746 46.1536C128.483 46.8372 127.165 47.3268 125.829 47.604C124.935 47.7887 124.032 47.8811 123.156 47.8811C115.71 47.8811 109.645 41.8024 109.645 34.3288V24.2593C109.645 24.1023 109.774 23.9822 109.922 23.9822H124.852C125.497 23.9822 125.995 23.4741 125.995 22.8366V13.8572C125.995 13.229 125.488 12.7209 124.852 12.7209H109.922C109.774 12.7209 109.645 12.5916 109.645 12.4438V4.37892C109.645 3.75073 109.129 3.2334 108.512 3.2334H99.5351C98.9084 3.2334 98.3923 3.75073 98.3923 4.37892V34.7538L98.4291 35.3265C98.9545 48.3153 109.922 58.9945 122.88 59.1424L123.156 59.1516C124.262 59.1516 125.377 59.0777 126.502 58.9206C126.944 58.856 127.405 58.7821 127.847 58.6897L128.032 58.662C130.197 58.2185 132.308 57.4887 134.299 56.4818L134.529 56.3709L135.1 56.0568L135.349 55.909C135.534 55.8166 135.718 55.7243 135.875 55.5857C136.041 55.4471 136.16 55.2901 136.225 55.1238C136.28 54.9944 136.299 54.8559 136.289 54.6896C136.289 54.5972 136.289 54.5233 136.253 54.4217C136.216 54.3293 136.16 54.2092 136.105 54.1353Z" fill="black"/>
</svg>
