<svg width="26" height="24" viewBox="0 0 26 24" fill="none" xmlns="http://www.w3.org/2000/svg">
<path fill-rule="evenodd" clip-rule="evenodd" d="M10.3354 9.11433V21.7751H23.0023V9.11433H10.3354ZM9.53595 6.8894H23.8017C24.5896 6.8894 25.2283 7.52779 25.2283 8.31529V22.5741C25.2283 23.3616 24.5896 24 23.8017 24H9.53595C8.74807 24 8.10938 23.3616 8.10938 22.5741V8.31529C8.10938 7.52779 8.74807 6.8894 9.53595 6.8894Z" fill="#5D6772"/>
<path d="M19.5308 14.7696L11.7517 1.08293C11.5655 0.753755 11.2973 0.480337 10.9741 0.290219C10.6509 0.100102 10.2842 0 9.91094 0C9.53764 0 9.17094 0.100102 8.84777 0.290219C8.52461 0.480337 8.2564 0.753755 8.07016 1.08293L0.29111 14.7696C0.102137 15.0971 0.00170776 15.4696 2.15884e-05 15.8494C-0.00166459 16.2291 0.0954521 16.6026 0.28151 16.9318C0.467567 17.261 0.735939 17.5343 1.05937 17.7239C1.38281 17.9134 1.74978 18.0125 2.12304 18.0111H17.6988C18.0721 18.0125 18.4391 17.9134 18.7625 17.7239C19.0859 17.5343 19.3543 17.261 19.5404 16.9318C19.7264 16.6026 19.8235 16.2291 19.8219 15.8494C19.8202 15.4696 19.7197 15.0971 19.5308 14.7696Z" fill="#0076F3"/>
</svg>
