<svg width="108" height="18" viewBox="0 0 108 18" fill="none" xmlns="http://www.w3.org/2000/svg">
<path fill-rule="evenodd" clip-rule="evenodd" d="M7.75154 6.83575V16.3313H17.2517V6.83575H7.75154ZM7.15196 5.16705H17.8513C18.4422 5.16705 18.9212 5.64584 18.9212 6.23646V16.9306C18.9212 17.5212 18.4422 18 17.8513 18H7.15196C6.56106 18 6.08203 17.5212 6.08203 16.9306V6.23646C6.08203 5.64584 6.56106 5.16705 7.15196 5.16705Z" fill="white"/>
<path d="M14.6481 11.0772L8.81379 0.812195C8.67411 0.565316 8.47295 0.360253 8.23058 0.217664C7.98821 0.0750762 7.71318 0 7.43321 0C7.15323 0 6.8782 0.0750762 6.63583 0.217664C6.39346 0.360253 6.1923 0.565316 6.05262 0.812195L0.218333 11.0772C0.0766025 11.3228 0.00128082 11.6022 1.61913e-05 11.887C-0.00124844 12.1719 0.0715891 12.4519 0.211132 12.6989C0.350675 12.9458 0.551954 13.1507 0.79453 13.2929C1.03711 13.4351 1.31234 13.5094 1.59228 13.5083H13.2741C13.5541 13.5094 13.8293 13.4351 14.0719 13.2929C14.3145 13.1507 14.5157 12.9458 14.6553 12.6989C14.7948 12.4519 14.8677 12.1719 14.8664 11.887C14.8651 11.6022 14.7898 11.3228 14.6481 11.0772Z" fill="white"/>
<path d="M105.236 2.50061H107.663V16.6285H105.236V2.50061ZM98.7567 4.83518H100.655V5.61839C100.655 9.26333 99.7061 12.6974 97.0238 14.1283L95.4717 12.2757C97.9731 11.0557 98.7567 8.26925 98.7567 5.61839V4.83518ZM99.3444 4.83518H101.228V5.61839C101.228 7.84752 102.087 10.6339 104.543 11.8991L103.142 13.7668C100.444 12.4112 99.3444 8.88678 99.3444 5.61839V4.83518ZM96.0443 3.79592H103.88V5.73888H96.0443V3.79592ZM103.277 6.9847H106.894V8.97285H103.277V6.9847Z" fill="white"/>
<path d="M91.9319 2.48572H94.358V16.6136H91.9319V2.48572ZM83.0713 3.81115H85.4974V12.6072H83.0713V3.81115ZM83.0713 11.1763H84.3823C86.4015 11.1763 88.7071 11.0408 91.0277 10.5889L91.2839 12.5921C88.8879 13.0892 86.492 13.2247 84.3823 13.2247H83.0713V11.1763Z" fill="white"/>
<path d="M79.064 2.48572H81.3695V16.6136H79.064V2.48572ZM77.6625 7.77239H79.8024V9.70029H77.6625V7.77239ZM75.9899 2.66646H78.2502V16.0262H75.9899V2.66646ZM69.4951 3.84127H75.1762V13.2398H69.4951V3.84127ZM72.9309 5.72399H71.7555V11.3571H72.9309V5.72399Z" fill="white"/>
<path d="M54.48 9.57944H64.5461V11.4772H54.48V9.57944ZM53.0635 13.1641H65.8571V15.1222H53.0635V13.1641ZM54.48 3.41919H64.4557V5.34709H56.9513V10.0915H54.48V3.41919ZM56.2129 6.50685H64.1242V8.3745H56.2129V6.50685Z" fill="white"/>
<path d="M40.1504 3.7658H47.0671V13.2697H40.1504V3.7658ZM44.6711 5.66358H42.5464V11.372H44.6711V5.66358ZM48.5439 2.50061H50.985V16.6285H48.5439V2.50061ZM50.4576 7.65172H52.8837V9.63987H50.4576V7.65172Z" fill="white"/>
<path d="M31.5619 3.224H33.6716V4.20301C33.6716 7.26054 31.8633 10.1675 27.7495 10.9205L26.7248 8.90227C30.2961 8.31486 31.5619 6.02548 31.5619 4.20301V3.224ZM32.0592 3.224H34.1689V4.20301C34.1689 6.08573 35.4045 8.31486 39.0061 8.90227L37.9814 10.9205C33.8524 10.1524 32.0592 7.32079 32.0592 4.20301V3.224ZM26.5439 13.0292H39.3376V15.0023H26.5439V13.0292Z" fill="white"/>
</svg>
