<svg width="25" height="25" viewBox="0 0 25 25" fill="none" xmlns="http://www.w3.org/2000/svg">
<path fill-rule="evenodd" clip-rule="evenodd" d="M4.76456 8.48605C5.48025 7.63518 6.71578 7.20874 8.55663 7.20874H16.877C18.7178 7.20874 19.9533 7.63518 20.669 8.48605C21.3785 9.32948 21.4502 10.4429 21.3338 11.4996L20.7096 18.1586C20.6184 19.0092 20.4062 19.9235 19.6634 20.6022C18.9255 21.2763 17.7736 21.6196 16.0449 21.6196H9.38866C7.66001 21.6196 6.50812 21.2763 5.77022 20.6022C5.02736 19.9235 4.81521 19.0092 4.72408 18.1586L4.7233 18.1513L4.09975 11.4995C3.98338 10.4428 4.05515 9.32947 4.76456 8.48605ZM5.60506 9.19301C5.19227 9.68377 5.08432 10.4113 5.19188 11.3834L5.19289 11.3925L5.81649 18.0451C5.90024 18.8235 6.07512 19.3931 6.511 19.7914C6.95251 20.1947 7.77254 20.5213 9.38866 20.5213H16.0449C17.661 20.5213 18.4811 20.1947 18.9226 19.7914C19.3585 19.3931 19.5334 18.8235 19.6171 18.0451L20.2416 11.3834C20.3492 10.4113 20.2413 9.68377 19.8285 9.19301C19.421 8.70846 18.5889 8.30702 16.877 8.30702H8.55663C6.8447 8.30702 6.01262 8.70846 5.60506 9.19301Z" fill="#222222"/>
<path fill-rule="evenodd" clip-rule="evenodd" d="M9.97511 6.12604C9.93901 6.40253 9.93813 6.71534 9.93813 7.09226V7.75789C9.93813 8.06117 9.69227 8.30703 9.38899 8.30703C9.0857 8.30703 8.83984 8.06117 8.83984 7.75789L8.83984 7.07278C8.83983 6.71885 8.83981 6.33815 8.88607 5.98386C8.93382 5.61812 9.03543 5.236 9.27005 4.89653C9.76156 4.18538 10.6686 3.88062 12.0515 3.88062H13.3827C14.7656 3.88062 15.6727 4.18538 16.1642 4.89653C16.3988 5.236 16.5004 5.61812 16.5482 5.98386C16.5944 6.33815 16.5944 6.71885 16.5944 7.07279L16.5944 7.75789C16.5944 8.06117 16.3485 8.30703 16.0453 8.30703C15.742 8.30703 15.4961 8.06117 15.4961 7.75789V7.09226C15.4961 6.71534 15.4952 6.40253 15.4591 6.12604C15.4237 5.85451 15.3589 5.66304 15.2607 5.52097C15.0866 5.26904 14.6624 4.9789 13.3827 4.9789H12.0515C10.7719 4.9789 10.3477 5.26904 10.1735 5.52097C10.0754 5.66304 10.0106 5.85451 9.97511 6.12604Z" fill="#222222"/>
<path fill-rule="evenodd" clip-rule="evenodd" d="M11.606 13.3013C11.6044 13.3715 11.6041 13.4618 11.6041 13.5824V14.4393C11.6041 14.6727 11.6061 14.8502 11.6272 15.0024C11.6477 15.1496 11.6815 15.231 11.7173 15.2815C11.7683 15.3535 11.947 15.5293 12.7191 15.5293C13.4947 15.5293 13.6718 15.3518 13.7222 15.2798C13.7581 15.2286 13.7917 15.1462 13.8118 14.9974C13.8326 14.8437 13.834 14.6654 13.834 14.431V13.5824C13.834 13.4618 13.8338 13.3715 13.8321 13.3013C13.762 13.2997 13.6717 13.2995 13.5511 13.2995H11.887C11.7665 13.2995 11.6762 13.2997 11.606 13.3013ZM11.8617 12.2012C11.8702 12.2012 11.8786 12.2012 11.887 12.2012H13.5511C13.5595 12.2012 13.568 12.2012 13.5764 12.2012C13.7623 12.2011 13.9449 12.2011 14.0928 12.2175C14.2433 12.2343 14.4793 12.2779 14.6674 12.466C14.8555 12.6541 14.8992 12.8902 14.9159 13.0407C14.9324 13.1886 14.9323 13.3711 14.9323 13.5571C14.9323 13.5655 14.9323 13.5739 14.9323 13.5824V14.4383C14.9323 14.6557 14.9323 14.9072 14.9002 15.1447C14.867 15.3898 14.795 15.6625 14.6218 15.9099C14.2541 16.4349 13.5992 16.6276 12.7191 16.6276C11.8437 16.6276 11.1904 16.4373 10.8212 15.9165C10.6469 15.6706 10.5736 15.3989 10.5394 15.1538C10.506 14.9136 10.5059 14.6595 10.5059 14.4393V13.5824C10.5059 13.5739 10.5059 13.5655 10.5059 13.5571C10.5058 13.3711 10.5058 13.1886 10.5222 13.0407C10.5389 12.8902 10.5826 12.6541 10.7707 12.466C10.9588 12.2779 11.1949 12.2343 11.3454 12.2175C11.4932 12.2011 11.6758 12.2011 11.8617 12.2012Z" fill="#222222"/>
<path fill-rule="evenodd" clip-rule="evenodd" d="M21.1904 11.5951C21.3688 11.8404 21.3146 12.1838 21.0693 12.3622C19.0696 13.8165 16.7848 14.6816 14.4498 14.9757C14.1489 15.0136 13.8743 14.8003 13.8364 14.4994C13.7985 14.1985 14.0117 13.9239 14.3126 13.886C16.4707 13.6142 18.579 12.8153 20.4233 11.474C20.6686 11.2956 21.012 11.3498 21.1904 11.5951Z" fill="#222222"/>
<path fill-rule="evenodd" clip-rule="evenodd" d="M4.45736 11.8325C4.62866 11.5823 4.97041 11.5182 5.22069 11.6895C7.01873 12.9202 9.04661 13.6621 11.112 13.8934C11.4134 13.9271 11.6304 14.1988 11.5967 14.5002C11.5629 14.8016 11.2912 15.0186 10.9898 14.9848C8.74532 14.7335 6.54646 13.9279 4.60036 12.5959C4.35008 12.4246 4.28606 12.0828 4.45736 11.8325Z" fill="#222222"/>
</svg>
