<svg width="25" height="25" viewBox="0 0 25 25" fill="none" xmlns="http://www.w3.org/2000/svg">
<path d="M12.7161 20.7384C10.0745 20.7384 7.61454 19.5538 5.96618 17.4881C4.73716 15.9441 4.08594 14.0851 4.08594 12.1063C4.08594 10.1275 4.73716 8.26848 5.96618 6.72834C7.61647 4.66065 10.0764 3.47607 12.7161 3.47607C15.3558 3.47607 17.8158 4.66065 19.4661 6.72834C20.697 8.27041 21.3463 10.1313 21.3463 12.1063C21.3463 14.0812 20.697 15.9441 19.4661 17.4861C17.8177 19.5519 15.3578 20.7365 12.7161 20.7365V20.7384ZM12.7161 4.21426C10.3025 4.21426 8.05127 5.29835 6.54205 7.18826C5.41738 8.59892 4.82219 10.2995 4.82219 12.1063C4.82219 13.9131 5.41738 15.6155 6.54205 17.0243C8.04933 18.9142 10.3006 19.9983 12.7161 19.9983C15.1317 19.9983 17.381 18.9142 18.8883 17.0243C20.013 15.6155 20.6081 13.9131 20.6081 12.1063C20.6081 10.2995 20.013 8.59699 18.8883 7.18826C17.381 5.29835 15.1317 4.21426 12.7161 4.21426Z" fill="#222222" stroke="#222222" stroke-width="0.15"/>
<path d="M13.0858 3.84521H12.3477V20.3694H13.0858V3.84521Z" fill="#222222" stroke="#222222" stroke-width="0.15"/>
<path d="M12.4952 20.665C9.77824 18.6244 8.2207 15.5055 8.2207 12.1083C8.2207 8.71106 9.77824 5.5902 12.4952 3.54956L12.9397 4.14088C10.4101 6.04045 8.95889 8.94295 8.95889 12.1063C8.95889 15.2697 10.4101 18.1741 12.9397 20.0718L12.4952 20.6631V20.665Z" fill="#222222" stroke="#222222" stroke-width="0.15"/>
<path d="M12.9386 20.665L12.4941 20.0737C15.0237 18.1741 16.4749 15.2716 16.4749 12.1083C16.4749 8.94488 15.0256 6.04045 12.4961 4.14088L12.9386 3.54956C15.6556 5.5902 17.215 8.70913 17.215 12.1063C17.215 15.5035 15.6556 18.6225 12.9386 20.6631V20.665Z" fill="#222222" stroke="#222222" stroke-width="0.15"/>
<path d="M20.9773 11.7373H4.45508V12.4755H20.9773V11.7373Z" fill="#222222" stroke="#222222" stroke-width="0.15"/>
<path d="M12.7164 8.62209C10.4786 8.62209 8.24281 8.18149 6.11328 7.30031L6.39541 6.61816C10.4709 8.3071 14.9599 8.3071 19.0354 6.61816L19.3195 7.30031C17.1899 8.18149 14.9541 8.62209 12.7164 8.62209Z" fill="#222222" stroke="#222222" stroke-width="0.15"/>
<path d="M19.0354 17.5984C14.9599 15.9095 10.4728 15.9095 6.39735 17.5984L6.11328 16.9162C10.3723 15.1519 15.0604 15.1519 19.3195 16.9162L19.0354 17.5984Z" fill="#222222" stroke="#222222" stroke-width="0.15"/>
</svg>
