<svg width="25" height="25" viewBox="0 0 25 25" fill="none" xmlns="http://www.w3.org/2000/svg">
<path d="M10.9174 10.7423H4.41419C4.23473 10.7423 4.08789 10.5954 4.08789 10.416C4.08789 8.37657 4.87428 7.25736 6.42747 7.08442C6.55799 7.07137 6.68851 7.13663 6.75051 7.25409C6.87124 7.4825 7.20733 8.01438 7.66741 8.01438C8.1275 8.01438 8.46033 7.4825 8.58432 7.25409C8.64632 7.13663 8.78989 7.0681 8.92367 7.08442C10.4671 7.25083 11.2469 8.37331 11.2469 10.416C11.2469 10.5954 11.1001 10.7423 10.9206 10.7423H10.9174ZM4.74702 10.0897H10.5845C10.4997 8.31457 9.71659 7.88059 9.04114 7.75986C8.67242 8.3472 8.1895 8.66698 7.66415 8.66698C7.13881 8.66698 6.65914 8.3472 6.29042 7.76312C5.61172 7.89038 4.83186 8.33089 4.74702 10.0864V10.0897Z" fill="#222222" stroke="#222222" stroke-width="0.15"/>
<path d="M7.66805 8.6672C6.46727 8.6672 5.72656 7.00306 5.72656 5.81206C5.72656 4.53949 6.54232 3.61279 7.66805 3.61279C8.79379 3.61279 9.60628 4.53949 9.60628 5.81206C9.60628 7.00306 8.86884 8.6672 7.66805 8.6672ZM7.66805 4.2654C6.91104 4.2654 6.37916 4.90168 6.37916 5.81206C6.37916 6.80402 6.97303 8.0146 7.66805 8.0146C8.36308 8.0146 8.95368 6.80402 8.95368 5.81206C8.95368 4.90168 8.42507 4.2654 7.66805 4.2654Z" fill="#222222" stroke="#222222" stroke-width="0.15"/>
<path d="M21.015 10.7654H14.5118C14.3324 10.7654 14.1855 10.6186 14.1855 10.4391C14.1855 8.39976 14.9719 7.28055 16.5251 7.10761C16.6556 7.09456 16.7862 7.15982 16.8482 7.27729C16.9689 7.5057 17.305 8.03757 17.7651 8.03757C18.2252 8.03757 18.558 7.5057 18.682 7.27729C18.744 7.15982 18.8875 7.0913 19.0213 7.10761C20.5647 7.27402 21.3446 8.3965 21.3446 10.4391C21.3446 10.6186 21.1978 10.7654 21.0183 10.7654H21.015ZM14.8447 10.1128H20.6822C20.5974 8.33777 19.8142 7.90705 19.1388 7.78305C18.7701 8.3704 18.2872 8.69017 17.7618 8.69017C17.2365 8.69017 16.7568 8.3704 16.3881 7.78632C15.7094 7.91357 14.9295 8.35408 14.8447 10.1096V10.1128Z" fill="#222222" stroke="#222222" stroke-width="0.15"/>
<path d="M17.7618 8.69015C16.561 8.69015 15.8203 7.02601 15.8203 5.83501C15.8203 4.55917 16.6361 3.63574 17.7618 3.63574C18.8875 3.63574 19.7033 4.56244 19.7033 5.83501C19.7033 7.02601 18.9659 8.69015 17.7618 8.69015ZM17.7618 4.28834C17.0048 4.28834 16.4729 4.92463 16.4729 5.83501C16.4729 6.82697 17.0668 8.03755 17.7618 8.03755C18.4568 8.03755 19.0507 6.82697 19.0507 5.83501C19.0507 4.92463 18.5221 4.28834 17.7618 4.28834Z" fill="#222222" stroke="#222222" stroke-width="0.15"/>
<path d="M15.9701 20.8873H9.46693C9.28746 20.8873 9.14062 20.7404 9.14062 20.561C9.14062 18.5216 9.92701 17.4024 11.4802 17.2294C11.6107 17.2164 11.7412 17.2816 11.8032 17.3991C11.924 17.6275 12.2601 18.1594 12.7201 18.1594C13.1802 18.1594 13.5131 17.6275 13.6371 17.3991C13.6991 17.2816 13.8459 17.2131 13.9764 17.2294C15.5198 17.3959 16.2997 18.5183 16.2997 20.561C16.2997 20.7404 16.1528 20.8873 15.9734 20.8873H15.9701ZM9.79975 20.2347H15.6373C15.5524 18.4596 14.7693 18.0256 14.0939 17.9049C13.7252 18.4922 13.2422 18.812 12.7169 18.812C12.1915 18.812 11.7119 18.4922 11.3432 17.9081C10.6645 18.0354 9.88459 18.4759 9.79975 20.2314V20.2347Z" fill="#222222" stroke="#222222" stroke-width="0.15"/>
<path d="M12.7169 18.812C11.5161 18.812 10.7754 17.1478 10.7754 15.9568C10.7754 14.681 11.5911 13.7576 12.7169 13.7576C13.8426 13.7576 14.6584 14.6843 14.6584 15.9568C14.6584 17.1478 13.9209 18.812 12.7169 18.812ZM12.7169 14.4069C11.9599 14.4069 11.428 15.0432 11.428 15.9536C11.428 16.9455 12.0219 18.1561 12.7169 18.1561C13.4119 18.1561 14.0058 16.9455 14.0058 15.9536C14.0058 15.0432 13.4772 14.4069 12.7169 14.4069Z" fill="#222222" stroke="#222222" stroke-width="0.15"/>
<path d="M13.665 5.99147H11.7072C11.5277 5.99147 11.3809 5.84463 11.3809 5.66517C11.3809 5.4857 11.5277 5.33887 11.7072 5.33887H13.665C13.8444 5.33887 13.9913 5.4857 13.9913 5.66517C13.9913 5.84463 13.8444 5.99147 13.665 5.99147Z" fill="#222222" stroke="#222222" stroke-width="0.15"/>
<path d="M9.19558 14.2144C9.08137 14.2144 8.9737 14.1556 8.9117 14.0512L7.93279 12.3544C7.84143 12.1978 7.8969 11.9988 8.05353 11.9074C8.21015 11.816 8.40919 11.8715 8.50056 12.0281L9.47946 13.7249C9.57083 13.8815 9.51536 14.0806 9.35873 14.1719C9.30652 14.2013 9.25105 14.2144 9.19558 14.2144Z" fill="#222222" stroke="#222222" stroke-width="0.15"/>
<path d="M16.2699 14.0674C16.2144 14.0674 16.159 14.0543 16.1068 14.025C15.9501 13.9336 15.8979 13.7346 15.986 13.5779L16.9649 11.8812C17.0563 11.7246 17.2553 11.6723 17.412 11.7604C17.5686 11.8518 17.6208 12.0509 17.5327 12.2075L16.5538 13.9042C16.4918 14.0087 16.3841 14.0674 16.2699 14.0674Z" fill="#222222" stroke="#222222" stroke-width="0.15"/>
</svg>
