<svg width="21" height="20" viewBox="0 0 21 20" fill="none" xmlns="http://www.w3.org/2000/svg">
<g clip-path="url(#clip0_319_6619)">
<path fill-rule="evenodd" clip-rule="evenodd" d="M1.33331 2.70801C1.67849 2.70801 1.95831 2.98783 1.95831 3.33301V7.70801H6.33331C6.67849 7.70801 6.95831 7.98783 6.95831 8.33301C6.95831 8.67819 6.67849 8.95801 6.33331 8.95801H1.33331C0.988135 8.95801 0.708313 8.67819 0.708313 8.33301V3.33301C0.708313 2.98783 0.988135 2.70801 1.33331 2.70801Z" fill="#828282"/>
<path fill-rule="evenodd" clip-rule="evenodd" d="M9.3668 1.96207C11.1112 1.71664 12.8881 2.04478 14.4297 2.89703C15.9714 3.74927 17.1943 5.07947 17.9143 6.68719C18.6342 8.29491 18.8121 10.0931 18.4213 11.8107C18.0304 13.5283 17.0919 15.0724 15.7471 16.2103C14.4024 17.3482 12.7243 18.0182 10.9657 18.1194C9.20702 18.2206 7.46311 17.7475 5.99671 16.7715C4.53031 15.7954 3.42085 14.3692 2.8355 12.7077C2.7208 12.3822 2.89173 12.0253 3.2173 11.9106C3.54286 11.7959 3.89976 11.9668 4.01447 12.2924C4.50977 13.6982 5.44854 14.905 6.68934 15.7309C7.93014 16.5568 9.40575 16.9571 10.8938 16.8715C12.3819 16.7858 13.8019 16.2189 14.9397 15.2561C16.0776 14.2932 16.8717 12.9867 17.2024 11.5333C17.5331 10.0799 17.3826 8.55843 16.7734 7.19806C16.1642 5.83768 15.1294 4.71213 13.825 3.99099C12.5205 3.26986 11.017 2.99221 9.54095 3.19987C8.06495 3.40754 6.69641 4.08927 5.64155 5.14235C5.63709 5.14681 5.63256 5.15119 5.62797 5.15551L1.7613 8.78884C1.50975 9.02521 1.11421 9.01291 0.877844 8.76136C0.641474 8.50981 0.65378 8.11427 0.905329 7.8779L4.76524 4.25092C6.01097 3.01024 7.62561 2.20704 9.3668 1.96207Z" fill="#828282"/>
</g>
<defs>
<clipPath id="clip0_319_6619">
<rect width="20" height="20" fill="white" transform="translate(0.5)"/>
</clipPath>
</defs>
</svg>
