<svg width="32" height="32" viewBox="0 0 32 32" fill="none" xmlns="http://www.w3.org/2000/svg">
<path d="M19.5 4L19.5 9C19.5 9.55225 19.0522 10 18.5 10L13.5 10C12.9478 10 12.5 9.55225 12.5 9L12.5 4C12.5 3.44775 12.9478 3 13.5 3L18.5 3C19.0522 3 19.5 3.44775 19.5 4Z" fill="black" fill-opacity="0.1"/>
<path d="M27 21L27 27C27 27.5522 26.5522 28 26 28L20 28C19.4478 28 19 27.5522 19 27L19 21C19 20.4478 19.4478 20 20 20L26 20C26.5522 20 27 20.4478 27 21Z" fill="black" fill-opacity="0.1"/>
<path d="M13 21L13 27C13 27.5522 12.5522 28 12 28L6 28C5.44775 28 5 27.5522 5 27L5 21C5 20.4478 5.44775 20 6 20L12 20C12.5522 20 13 20.4478 13 21Z" fill="black" fill-opacity="0.1"/>
<path fill-rule="evenodd" clip-rule="evenodd" d="M18.5 2C18.5 2 19.3284 2 19.9142 2.58579C19.9142 2.58579 20.5 3.17157 20.5 4L20.5 9C20.5 9 20.5 9.82843 19.9142 10.4142C19.9142 10.4142 19.3284 11 18.5 11L13.5 11C13.5 11 12.6716 11 12.0858 10.4142C12.0858 10.4142 11.5 9.82843 11.5 9L11.5 4C11.5 4 11.5 3.17157 12.0858 2.58579C12.0858 2.58579 12.6716 2 13.5 2L18.5 2ZM18.5 4L13.5 4L13.5 9L18.5 9L18.5 4Z" fill="#1C1C1C"/>
<path fill-rule="evenodd" clip-rule="evenodd" d="M26 19C26 19 26.8284 19 27.4142 19.5858C27.4142 19.5858 28 20.1716 28 21L28 27C28 27 28 27.8284 27.4142 28.4142C27.4142 28.4142 26.8284 29 26 29L20 29C20 29 19.1716 29 18.5858 28.4142C18.5858 28.4142 18 27.8284 18 27L18 21C18 21 18 20.1716 18.5858 19.5858C18.5858 19.5858 19.1716 19 20 19L26 19ZM26 21L20 21L20 27L26 27L26 21Z" fill="#1C1C1C"/>
<path fill-rule="evenodd" clip-rule="evenodd" d="M12 19C12 19 12.8284 19 13.4142 19.5858C13.4142 19.5858 14 20.1716 14 21L14 27C14 27 14 27.8284 13.4142 28.4142C13.4142 28.4142 12.8284 29 12 29L6 29C6 29 5.17157 29 4.58579 28.4142C4.58579 28.4142 4 27.8284 4 27L4 21C4 21 4 20.1716 4.58579 19.5858C4.58579 19.5858 5.17157 19 6 19L12 19ZM12 21L6 21L6 27L12 27L12 21Z" fill="#1C1C1C"/>
<path d="M15 10L15 15C15 15.5523 15.4477 16 16 16C16.5523 16 17 15.5523 17 15L17 10C17 9.44772 16.5523 9 16 9C15.4477 9 15 9.44772 15 10Z" fill="#1C1C1C"/>
<path d="M21.8503 17.2308C22.0016 17.5983 22 18 22 18L22 20C22 20.5523 22.4477 21 23 21C23.5522 21 24 20.5523 24 20L24 18C24.0033 17.2067 23.6997 16.4693 23.6997 16.4693C23.396 15.7318 22.8321 15.1679 22.8321 15.1679C22.2682 14.604 21.5307 14.3003 21.5307 14.3003C20.7933 13.9967 19.9958 14 19.9958 14L12 14C11.2067 13.9967 10.4692 14.3003 10.4692 14.3003C9.73177 14.604 9.16785 15.1679 9.16785 15.1679C8.60392 15.7318 8.30028 16.4693 8.30028 16.4693C7.99663 17.2067 7.99997 18.0042 7.99997 18.0042L7.99996 20C7.99996 20.5523 8.44768 21 8.99996 21C9.55225 21 9.99996 20.5523 9.99996 20L9.99996 17.9958C9.99829 17.5983 10.1496 17.2308 10.1496 17.2308C10.301 16.8632 10.5821 16.5821 10.5821 16.5821C10.8631 16.3011 11.2307 16.1497 11.2307 16.1497C11.5983 15.9984 12 16 12 16L20.0042 16C20.4017 15.9984 20.7692 16.1497 20.7692 16.1497C21.1368 16.3011 21.4179 16.5821 21.4179 16.5821C21.6989 16.8632 21.8503 17.2308 21.8503 17.2308Z" fill="#1C1C1C"/>
</svg>
