<svg width="32" height="33" viewBox="0 0 32 33" fill="none" xmlns="http://www.w3.org/2000/svg">
<path d="M30.2376 14.1254C30.05 13.8704 29.8053 13.663 29.5231 13.5197C29.2409 13.3765 28.9291 13.3013 28.6126 13.3004H27.0001V11.3004C27.0001 10.7699 26.7894 10.2612 26.4143 9.88615C26.0392 9.51108 25.5305 9.30036 25.0001 9.30036H16.3376L12.8626 6.70036C12.5181 6.4374 12.0959 6.29666 11.6626 6.30036H5.00008C4.46965 6.30036 3.96094 6.51108 3.58587 6.88615C3.21079 7.26122 3.00008 7.76993 3.00008 8.30036V26.3004C2.9984 26.4321 3.02312 26.5629 3.07278 26.685C3.12244 26.8071 3.19604 26.918 3.28923 27.0112C3.38243 27.1044 3.49334 27.178 3.61542 27.2277C3.7375 27.2773 3.86829 27.302 4.00008 27.3004H26.0001C26.2106 27.3004 26.4158 27.2339 26.5864 27.1105C26.757 26.987 26.8843 26.8129 26.9501 26.6129L30.5126 15.9379C30.6115 15.6353 30.6382 15.3137 30.5904 14.9989C30.5427 14.6842 30.4218 14.385 30.2376 14.1254ZM11.6626 8.30036L15.1376 10.9004C15.482 11.1633 15.9042 11.3041 16.3376 11.3004H25.0001V13.3004H8.72508C8.30549 13.2995 7.89623 13.4305 7.55525 13.6751C7.21427 13.9196 6.95882 14.2652 6.82508 14.6629L5.00008 20.1379V8.30036H11.6626Z" fill="#828282"/>
</svg>
