<svg width="24" height="24" viewBox="0 0 24 24" fill="none" xmlns="http://www.w3.org/2000/svg">
<g clip-path="url(#clip0_2849_15314)">
<path d="M6.19523 2H18.1174C18.5967 2 18.9905 2.3863 18.9905 2.8589V22.139C18.9905 22.6116 18.5988 22.9979 18.1174 22.9979H1.87108C1.39178 22.9979 1 22.6116 1 22.139V7.12055L6.19523 2Z" fill="white"/>
<path d="M6.19314 6.45068C6.19314 6.81849 5.8868 7.12055 5.51378 7.12055H1L6.19314 2V6.45068Z" fill="#262D34"/>
<path d="M15.4105 11.6514H4.57617V12.876H15.4105V11.6514Z" fill="#0076F3"/>
<path d="M13.4495 14.6372H4.57617V15.8619H13.4495V14.6372Z" fill="#262D34"/>
<path d="M10.8113 8.66357H4.57617V9.88823H10.8113V8.66357Z" fill="#0076F3"/>
<path d="M13.4495 17.6226H4.57617V18.8472H13.4495V17.6226Z" fill="#262D34"/>
<path d="M22.133 12.1076L19.5635 10.0857L20.4304 9.00488L22.9999 11.0268L22.133 12.1076Z" fill="#262D34"/>
<path d="M22.131 12.1074L17.4796 17.8218L14.9102 15.7998L19.5615 10.0854L22.131 12.1074Z" fill="#0076F3"/>
<path d="M14.4663 19.0014L15.9521 18.422L14.6851 17.4233L14.4663 19.0014Z" fill="#0076F3"/>
<path d="M14.9101 15.7998L14.6851 17.4231L15.9521 18.4217L17.4796 17.8217L14.9101 15.7998Z" fill="#262D34"/>
</g>
<defs>
<clipPath id="clip0_2849_15314">
<rect width="22" height="21" fill="white" transform="translate(1 2)"/>
</clipPath>
</defs>
</svg>
