<svg width="32" height="32" viewBox="0 0 32 32" fill="none" xmlns="http://www.w3.org/2000/svg">
<path d="M22 18H2V23C2 23.2653 2.10535 23.5195 2.29285 23.7072C2.48047 23.8947 2.73474 24 3 24H5.5C5.5 23.2043 5.81604 22.4413 6.37866 21.8787C6.94128 21.316 7.70435 21 8.5 21C9.29565 21 10.0587 21.316 10.6213 21.8787C11.184 22.4413 11.5 23.2043 11.5 24H20.5C20.4996 23.473 20.6382 22.9553 20.9015 22.4989C21.1648 22.0425 21.5437 21.6635 22 21.4V18Z" fill="#E7E7E7"/>
<path d="M26.5 24C26.5004 23.4733 26.3619 22.9557 26.0988 22.4993C25.8356 22.043 25.4569 21.6641 25.0009 21.4005C24.5447 21.137 24.0272 20.9982 23.5005 20.998C22.9738 20.998 22.4562 21.1366 22 21.4V15H30V23C30 23.2653 29.8947 23.5195 29.7072 23.7072C29.5195 23.8947 29.2653 24 29 24H26.5Z" fill="#E7E7E7"/>
<path d="M27.323 11L29.0715 15.3714C29.17 15.6177 29.3623 15.8147 29.6061 15.9192C29.7306 15.9725 29.8646 16 30 16L30.0127 15.9999C30.1356 15.9984 30.2572 15.9742 30.3714 15.9285C30.751 15.7766 31 15.4089 31 15L31 14.9965C30.9995 14.8705 30.9753 14.7456 30.9285 14.6286L30.9282 14.6279L29.1785 10.2536C28.9542 9.68533 28.4441 9.34068 28.4441 9.34068C27.9341 8.99604 27.3185 9.00005 27.3185 9.00005L22 9.00002C21.4477 9.00002 21 9.44774 21 10C21 10.5523 21.4477 11 22 11L27.323 11Z" fill="#282828"/>
<path d="M2 19H22C22.5523 19 23 18.5523 23 18C23 17.4477 22.5523 17 22 17H2C1.44772 17 1 17.4477 1 18C1 18.5523 1.44772 19 2 19Z" fill="#282828"/>
<path fill-rule="evenodd" clip-rule="evenodd" d="M23.5 20C23.5 20 25.1569 20 26.3284 21.1716C26.3284 21.1716 27.5 22.3431 27.5 24C27.5 24 27.5 25.6569 26.3284 26.8284C26.3284 26.8284 25.1569 28 23.5 28C23.5 28 21.8431 28 20.6716 26.8284C20.6716 26.8284 19.5 25.6569 19.5 24C19.5 24 19.5 22.3431 20.6716 21.1716C20.6716 21.1716 21.8431 20 23.5 20ZM23.5 22C23.5 22 22.6716 22 22.0858 22.5858C22.0858 22.5858 21.5 23.1716 21.5 24C21.5 24 21.5 24.8284 22.0858 25.4142C22.0858 25.4142 22.6716 26 23.5 26C23.5 26 24.3284 26 24.9142 25.4142C24.9142 25.4142 25.5 24.8284 25.5 24C25.5 24 25.5 23.1716 24.9142 22.5858C24.9142 22.5858 24.3284 22 23.5 22Z" fill="#282828"/>
<path fill-rule="evenodd" clip-rule="evenodd" d="M8.5 20C8.5 20 10.1569 20 11.3284 21.1716C11.3284 21.1716 12.5 22.3431 12.5 24C12.5 24 12.5 25.6569 11.3284 26.8284C11.3284 26.8284 10.1569 28 8.5 28C8.5 28 6.84315 28 5.67157 26.8284C5.67157 26.8284 4.5 25.6569 4.5 24C4.5 24 4.5 22.3431 5.67157 21.1716C5.67157 21.1716 6.84315 20 8.5 20ZM8.5 22C8.5 22 7.67157 22 7.08579 22.5858C7.08579 22.5858 6.5 23.1716 6.5 24C6.5 24 6.5 24.8284 7.08579 25.4142C7.08579 25.4142 7.67157 26 8.5 26C8.5 26 9.32843 26 9.91421 25.4142C9.91421 25.4142 10.5 24.8284 10.5 24C10.5 24 10.5 23.1716 9.91421 22.5858C9.91421 22.5858 9.32843 22 8.5 22Z" fill="#282828"/>
<path d="M20.5 23H11.5C10.9477 23 10.5 23.4477 10.5 24C10.5 24.5523 10.9477 25 11.5 25H20.5C21.0523 25 21.5 24.5523 21.5 24C21.5 23.4477 21.0523 23 20.5 23Z" fill="#282828"/>
<path d="M21 9V21.4C21 21.9523 21.4477 22.4 22 22.4C22.5523 22.4 23 21.9523 23 21.4V8C23 7.44772 22.5523 7 22 7H3C2.17157 7 1.58579 7.58579 1.58579 7.58579C1 8.17157 1 9 1 9V23C1 23.8284 1.58579 24.4142 1.58579 24.4142C2.17157 25 3 25 3 25H5.5C6.05228 25 6.5 24.5523 6.5 24C6.5 23.4477 6.05228 23 5.5 23H3V9H21Z" fill="#282828"/>
<path d="M29 23H26.5C25.9477 23 25.5 23.4477 25.5 24C25.5 24.5523 25.9477 25 26.5 25H29C29.8284 25 30.4142 24.4142 30.4142 24.4142C31 23.8284 31 23 31 23V15C31 14.4477 30.5523 14 30 14H22C21.4477 14 21 14.4477 21 15C21 15.5523 21.4477 16 22 16H29V23Z" fill="#282828"/>
</svg>
