<svg width="24" height="24" viewBox="0 0 24 24" fill="none" xmlns="http://www.w3.org/2000/svg">
<path d="M1 17.2504C1 17.5687 1.26101 17.8298 1.57936 17.8298H22.4226C22.741 17.8298 23.002 17.5687 23.002 17.2504V15.9434H1V17.2504Z" fill="#262D34"/>
<path d="M23 4.31445H1V15.9452H23V4.31445Z" fill="white"/>
<path d="M23 3.57936C23 3.26101 22.739 3 22.4206 3H1.57936C1.26101 3 1 3.26101 1 3.57936V4.31494H23V3.57936Z" fill="#262D34"/>
<path d="M16.8998 20.662C16.8998 21.099 16.5122 21.453 16.0357 21.453H7.96811C7.48959 21.453 7.104 21.099 7.104 20.662C7.104 20.225 7.49156 19.8711 7.96811 19.8711H16.0357C16.5142 19.8711 16.8998 20.225 16.8998 20.662Z" fill="#262D34"/>
<path d="M13.9141 17.1914H10.0859V20.7902H13.9141V17.1914Z" fill="#262D34"/>
<path d="M4.91505 5.45581H2.24365V6.0589H4.91505V5.45581Z" fill="#0076F3"/>
<path d="M4.91505 6.63867H2.24365V7.24176H4.91505V6.63867Z" fill="#0076F3"/>
<path d="M14.9999 14.0953C14.8516 14.0953 14.7033 14.034 14.5945 13.9153L13.2598 12.4284C13.0601 12.2049 13.0779 11.8609 13.3013 11.6612C13.5248 11.4614 13.8688 11.4792 14.0685 11.7027L15.4032 13.1897C15.603 13.4131 15.5852 13.7572 15.3617 13.9569C15.2569 14.0498 15.1284 14.0953 14.9979 14.0953H14.9999Z" fill="#0076F3"/>
<path d="M11.8 13.312C9.94331 13.312 8.43262 11.8013 8.43262 9.94458C8.43262 8.08784 9.94331 6.57715 11.8 6.57715C13.6568 6.57715 15.1655 8.08784 15.1655 9.94458C15.1655 11.8013 13.6548 13.312 11.8 13.312ZM11.8 7.66667C10.5424 7.66667 9.52016 8.68896 9.52016 9.94655C9.52016 11.2041 10.5424 12.2264 11.8 12.2264C13.0576 12.2264 14.078 11.2041 14.078 9.94655C14.078 8.68896 13.0557 7.66667 11.8 7.66667Z" fill="#0076F3"/>
</svg>
