<svg width="22" height="21" viewBox="0 0 22 21" fill="none" xmlns="http://www.w3.org/2000/svg">
<g id="_&#234;&#178;&#169;&#235;&#166;&#172;_&#235;&#170;&#168;&#235;&#147;&#156;" clip-path="url(#clip0_2849_16277)">
<path id="Vector" d="M5.19523 0H17.1174C17.5967 0 17.9905 0.386301 17.9905 0.858904V20.139C17.9905 20.6116 17.5988 20.9979 17.1174 20.9979H0.871081C0.391778 20.9979 0 20.6116 0 20.139V5.12055L5.19523 0Z" fill="white"/>
<path id="Vector_2" d="M5.19314 4.45068C5.19314 4.81849 4.8868 5.12055 4.51378 5.12055H0L5.19314 0V4.45068Z" fill="#5D6772"/>
<path id="Vector_3" d="M14.4105 9.65137H3.57617V10.876H14.4105V9.65137Z" fill="#A1A7AE"/>
<path id="Vector_4" d="M12.4495 12.6372H3.57617V13.8619H12.4495V12.6372Z" fill="#5D6772"/>
<path id="Vector_5" d="M9.81128 6.66357H3.57617V7.88823H9.81128V6.66357Z" fill="#A1A7AE"/>
<path id="Vector_6" d="M12.4495 15.6226H3.57617V16.8472H12.4495V15.6226Z" fill="#5D6772"/>
<path id="Vector_7" d="M21.133 10.1076L18.5635 8.0857L19.4304 7.00488L21.9999 9.0268L21.133 10.1076Z" fill="#5D6772"/>
<path id="Vector_8" d="M21.131 10.1074L16.4796 15.8218L13.9102 13.7998L18.5615 8.08545L21.131 10.1074Z" fill="#A1A7AE"/>
<path id="Vector_9" d="M13.4663 17.0014L14.9521 16.422L13.6851 15.4233L13.4663 17.0014Z" fill="#A1A7AE"/>
<path id="Vector_10" d="M13.9101 13.7998L13.6851 15.4231L14.9521 16.4217L16.4796 15.8217L13.9101 13.7998Z" fill="#5D6772"/>
</g>
<defs>
<clipPath id="clip0_2849_16277">
<rect width="22" height="21" fill="white"/>
</clipPath>
</defs>
</svg>
