<svg width="25" height="25" viewBox="0 0 25 25" fill="none" xmlns="http://www.w3.org/2000/svg">
<path d="M3.30981 16.3696H21.9821L22.0413 16.3105V6.76717C22.0413 6.35693 21.5247 5.9052 21.116 5.91797H4.19579C3.89963 5.93712 3.60125 6.09547 3.44221 6.34736C3.42 6.38261 3.30995 6.5948 3.30995 6.60937V16.3694L3.30981 16.3696ZM22.0414 16.9611H3.30981V17.8879C3.30981 18.1392 3.8351 18.6153 4.11668 18.5795H21.1952C21.5115 18.554 21.7919 18.379 21.9302 18.092C21.9509 18.0491 22.0415 17.7928 22.0415 17.7695V16.9611H22.0414ZM14.4259 19.1742L10.9783 19.1669L10.8652 19.1701L10.3292 19.1696H4.11821C3.40307 19.1696 2.71277 18.3933 2.71888 17.6902L2.7168 6.84461C2.74663 6.07548 3.30662 5.44819 4.07741 5.36589L21.1954 5.36548C21.9144 5.39823 22.4859 5.94808 22.5893 6.65323L22.5954 17.7319C22.6205 18.4242 21.8714 19.1695 21.1937 19.1695H15.0221L14.426 19.1742H14.4259Z" fill="#222222" stroke="#222222" stroke-width="0.15"/>
<path d="M20.9776 14.9104C21.5411 14.773 21.9036 15.2999 21.2744 15.5028L13.5033 15.5034C12.8641 15.443 13.0722 14.7558 13.6825 14.9105C13.7338 14.1811 13.6136 13.3598 13.6808 12.6413C13.7019 12.4165 13.7718 12.2569 14.0167 12.2279C14.3628 12.1869 15.2866 12.1889 15.6353 12.2277C15.7632 12.242 15.9696 12.346 15.9696 12.4852V14.9104H16.2062V11.6965C16.2062 11.5333 16.4394 11.4507 16.5788 11.4381C16.9388 11.4054 17.8505 11.3945 18.1951 11.4426C18.3097 11.4586 18.4935 11.5781 18.4935 11.6965V14.9104H18.7301V10.2767C18.7301 10.1675 18.9302 10.0775 19.0294 10.0634C19.3585 10.0171 20.2224 10.0264 20.5653 10.0583C20.6956 10.0704 20.9779 10.1613 20.9779 10.3162V14.9104H20.9776ZM20.386 10.6515H19.3213V14.9104H20.386V10.6515ZM16.7976 12.0316V14.9104H17.9017V12.0316H16.7976ZM15.3778 12.8203H14.2737V14.9104H15.3778V12.8203Z" fill="#222222" stroke="#222222" stroke-width="0.15"/>
<path d="M7.97208 11.7855L10.8822 13.5479C11.0255 13.7962 10.6143 14.269 10.4454 14.4561C8.82655 16.2487 5.89883 15.9653 4.61788 13.9368C3.43143 12.0579 4.18876 9.45689 6.23995 8.59423C6.60495 8.44074 6.79383 8.30195 6.97716 8.73828C7.3774 9.69074 7.58446 10.8176 7.97222 11.7855H7.97208ZM6.50252 9.11369C3.28724 10.5162 4.47229 15.3598 8.02065 15.0677C8.83238 15.0008 9.78539 14.4895 10.2073 13.7905L7.52729 12.1708L6.50239 9.11355L6.50252 9.11369Z" fill="#222222" stroke="#222222" stroke-width="0.15"/>
<path d="M11.4203 8.96279C11.6037 8.9238 11.7896 9.15959 11.9029 9.29226C12.7824 10.3208 12.9829 12.0997 12.305 13.2806C12.0953 13.646 12.0187 13.684 11.6412 13.4975C10.7172 13.0412 9.82399 12.3352 8.89388 11.8676C8.70666 11.7491 8.70195 11.5233 8.86682 11.3804C9.56433 10.7325 10.2141 10.008 10.9177 9.36956C11.0029 9.29226 11.3455 8.97889 11.4203 8.96293V8.96279ZM11.4506 9.66628L9.49938 11.5387L11.8056 12.9379C12.3511 11.9008 12.1978 10.5643 11.4506 9.66628Z" fill="#222222" stroke="#222222" stroke-width="0.15"/>
<path d="M8.03443 7.46919C8.96302 7.38565 9.85982 7.63393 10.6022 8.1903C10.7902 8.3313 11.2328 8.64009 11.0808 8.89892L9.71729 10.2168C9.38727 10.5357 9.01811 10.9879 8.67366 11.2632C8.48866 11.4111 8.26162 11.5151 8.14088 11.2432L7.05769 7.94549C7.02536 7.56384 7.74813 7.49487 8.03443 7.46905V7.46919ZM8.47645 10.5725L8.71335 10.4352L10.3901 8.75875C9.67483 8.1173 8.65742 7.90219 7.72689 8.08857L8.47645 10.5726V10.5725Z" fill="#222222" stroke="#222222" stroke-width="0.15"/>
<path d="M20.887 8.78705C20.8341 8.8402 20.6832 8.87851 20.6043 8.87906L14.0552 8.87781C13.6839 8.85616 13.629 8.33171 14.0151 8.28369L20.682 8.28452C20.9407 8.28328 21.0596 8.61302 20.887 8.78705Z" fill="#222222" stroke="#222222" stroke-width="0.15"/>
<path d="M20.8861 7.52499C20.8333 7.57814 20.6824 7.61645 20.6034 7.617L14.0543 7.61575C13.7189 7.57592 13.642 7.23313 13.9181 7.04398L20.6812 7.02246C20.9398 7.02122 21.0588 7.35096 20.8861 7.52499Z" fill="#222222" stroke="#222222" stroke-width="0.15"/>
</svg>
