<svg width="22" height="22" viewBox="0 0 22 22" fill="none" xmlns="http://www.w3.org/2000/svg">
<path fill-rule="evenodd" clip-rule="evenodd" d="M2.75 4.125C2.75 4.125 2.75 3.55546 3.15273 3.15273C3.15273 3.15273 3.55546 2.75 4.125 2.75H17.875C17.875 2.75 18.4445 2.75 18.8473 3.15273C18.8473 3.15273 19.25 3.55545 19.25 4.125V17.875C19.25 17.875 19.25 18.4445 18.8473 18.8473C18.8473 18.8473 18.4445 19.25 17.875 19.25H4.125C4.125 19.25 3.55545 19.25 3.15273 18.8473C3.15273 18.8473 2.75 18.4445 2.75 17.875V4.125ZM4.125 4.125V17.875H17.875V4.125H4.125Z" fill="#262D34"/>
<path d="M14.4375 2.0625V4.8125C14.4375 5.1922 14.7453 5.5 15.125 5.5C15.5047 5.5 15.8125 5.1922 15.8125 4.8125V2.0625C15.8125 1.6828 15.5047 1.375 15.125 1.375C14.7453 1.375 14.4375 1.6828 14.4375 2.0625Z" fill="#262D34"/>
<path d="M6.1875 2.0625V4.8125C6.1875 5.1922 6.4953 5.5 6.875 5.5C7.2547 5.5 7.5625 5.1922 7.5625 4.8125V2.0625C7.5625 1.6828 7.2547 1.375 6.875 1.375C6.4953 1.375 6.1875 1.6828 6.1875 2.0625Z" fill="#262D34"/>
<path d="M3.4375 8.25H18.5625C18.9422 8.25 19.25 7.9422 19.25 7.5625C19.25 7.1828 18.9422 6.875 18.5625 6.875H3.4375C3.0578 6.875 2.75 7.1828 2.75 7.5625C2.75 7.9422 3.0578 8.25 3.4375 8.25Z" fill="#262D34"/>
<path d="M10.0821 13.8352L8.3794 12.22C8.25167 12.0988 8.08231 12.0312 7.90625 12.0312L7.88813 12.0315C7.70585 12.0363 7.53296 12.1133 7.40747 12.2456C7.2863 12.3733 7.21875 12.5427 7.21875 12.7188L7.21899 12.7369C7.2238 12.9191 7.30081 13.092 7.4331 13.2175L9.60732 15.28C9.87192 15.531 10.2865 15.5317 10.5519 15.2816L14.5652 11.5004C14.6979 11.3753 14.7755 11.2027 14.7809 11.0205L14.7812 11L14.7811 10.9874C14.778 10.8165 14.7113 10.6529 14.5941 10.5285C14.4642 10.3907 14.2832 10.3125 14.0938 10.3125L14.0786 10.3127C13.9086 10.3164 13.7461 10.383 13.6223 10.4996L10.0821 13.8352Z" fill="#262D34"/>
</svg>
