<svg width="24" height="24" viewBox="0 0 24 24" fill="none" xmlns="http://www.w3.org/2000/svg">
<path fill-rule="evenodd" clip-rule="evenodd" d="M17.3033 6.69686C16.9372 6.33074 16.3436 6.33074 15.9775 6.69686L12 10.6743L8.02252 6.69686C7.65641 6.33074 7.06282 6.33074 6.6967 6.69686C6.33058 7.06297 6.33058 7.65656 6.6967 8.02268L10.6742 12.0002L6.6967 15.9776C6.33058 16.3437 6.33058 16.9373 6.6967 17.3035C7.06282 17.6696 7.65641 17.6696 8.02252 17.3035L12 13.326L15.9775 17.3035C16.3436 17.6696 16.9372 17.6696 17.3033 17.3035C17.6694 16.9373 17.6694 16.3437 17.3033 15.9776L13.3258 12.0002L17.3033 8.02268C17.6694 7.65656 17.6694 7.06297 17.3033 6.69686Z" fill="#262D34"/>
</svg>
