<svg width="25" height="25" viewBox="0 0 25 25" fill="none" xmlns="http://www.w3.org/2000/svg">
<path d="M11.375 19.504L4.775 12.904C4.675 12.804 4.604 12.6957 4.562 12.579C4.52067 12.4624 4.5 12.3374 4.5 12.204C4.5 12.0707 4.52067 11.9457 4.562 11.829C4.604 11.7124 4.675 11.604 4.775 11.504L11.375 4.90403C11.5583 4.7207 11.7873 4.6247 12.062 4.61603C12.3373 4.60803 12.575 4.70403 12.775 4.90403C12.975 5.08736 13.0793 5.31636 13.088 5.59103C13.096 5.86636 13 6.10403 12.8 6.30403L7.9 11.204H19.075C19.3583 11.204 19.596 11.2997 19.788 11.491C19.9793 11.683 20.075 11.9207 20.075 12.204C20.075 12.4874 19.9793 12.7247 19.788 12.916C19.596 13.108 19.3583 13.204 19.075 13.204H7.9L12.8 18.104C12.9833 18.2874 13.0793 18.5207 13.088 18.804C13.096 19.0874 13 19.3207 12.8 19.504C12.6167 19.704 12.3833 19.804 12.1 19.804C11.8167 19.804 11.575 19.704 11.375 19.504Z" fill="#5D6772"/>
</svg>
