<svg width="33" height="33" viewBox="0 0 33 33" fill="none" xmlns="http://www.w3.org/2000/svg">
<path d="M19.668 4.5V11.5H26.668L19.668 4.5Z" fill="#E7E7E7"/>
<path fill-rule="evenodd" clip-rule="evenodd" d="M27.0822 28.9142C27.0822 28.9142 26.4964 29.5 25.668 29.5H7.66797C7.66797 29.5 6.83954 29.5 6.25376 28.9142C6.25376 28.9142 5.66797 28.3284 5.66797 27.5V5.5C5.66797 5.5 5.66797 4.67157 6.25376 4.08579C6.25376 4.08579 6.83954 3.5 7.66797 3.5H19.668C19.9332 3.5 20.1875 3.60536 20.3751 3.79289L27.3751 10.7929C27.5626 10.9804 27.668 11.2348 27.668 11.5V27.5C27.668 27.5 27.668 28.3284 27.0822 28.9142ZM25.668 27.5V11.9142L19.2538 5.5H7.66797V27.5H25.668Z" fill="#282828"/>
<path d="M19.668 12.5H26.668C27.2203 12.5 27.668 12.0523 27.668 11.5C27.668 10.9477 27.2203 10.5 26.668 10.5H20.668V4.5C20.668 3.94772 20.2203 3.5 19.668 3.5C19.1157 3.5 18.668 3.94772 18.668 4.5V11.5C18.668 12.0523 19.1157 12.5 19.668 12.5Z" fill="#282828"/>
<path d="M17.9375 22.1818L19.9374 24.1817C20.125 24.3693 20.3793 24.4746 20.6445 24.4746C20.9097 24.4746 21.1641 24.3693 21.3516 24.1817C21.5392 23.9942 21.6445 23.7398 21.6445 23.4746C21.6445 23.2094 21.5392 22.955 21.3516 22.7675L19.3518 20.7676C19.1641 20.58 18.9097 20.4746 18.6445 20.4746C18.3793 20.4746 18.125 20.58 17.9374 20.7675C17.7499 20.955 17.6445 21.2094 17.6445 21.4746C17.6445 21.7398 17.7499 21.9942 17.9375 22.1818Z" fill="#282828"/>
<path fill-rule="evenodd" clip-rule="evenodd" d="M16.168 14.5C16.168 14.5 18.0319 14.5 19.3499 15.818C19.3499 15.818 20.668 17.136 20.668 19C20.668 19 20.668 20.864 19.3499 22.182C19.3499 22.182 18.0319 23.5 16.168 23.5C16.168 23.5 14.304 23.5 12.986 22.182C12.986 22.182 11.668 20.864 11.668 19C11.668 19 11.668 17.136 12.986 15.818C12.986 15.818 14.304 14.5 16.168 14.5ZM16.168 16.5C16.168 16.5 15.1324 16.5 14.4002 17.2322C14.4002 17.2322 13.668 17.9645 13.668 19C13.668 19 13.668 20.0355 14.4002 20.7678C14.4002 20.7678 15.1324 21.5 16.168 21.5C16.168 21.5 17.2035 21.5 17.9357 20.7678C17.9357 20.7678 18.668 20.0355 18.668 19C18.668 19 18.668 17.9645 17.9357 17.2322C17.9357 17.2322 17.2035 16.5 16.168 16.5Z" fill="#282828"/>
</svg>
