<svg width="33" height="32" viewBox="0 0 33 32" fill="none" xmlns="http://www.w3.org/2000/svg">
<path d="M15.3231 28.7713C14.9868 28.7713 14.7148 28.4925 14.7148 28.1479C14.7148 27.8032 14.9868 27.5244 15.3231 27.5244H17.6769C18.0132 27.5244 18.2852 27.8032 18.2852 28.1479C18.2852 28.4925 18.0132 28.7713 17.6769 28.7713H15.3231Z" fill="#282828"/>
<path d="M22.6231 24.1943C22.6231 26.4245 21.3522 28.2289 19.1814 28.2289C18.6968 28.2289 18.2319 28.1377 17.8066 27.9755" stroke="#282828" stroke-width="1.5" stroke-linecap="round" stroke-linejoin="round"/>
<path d="M14.4923 30.2413C9.75497 30.2413 6.41211 26.3081 6.41211 21.4523V17.2353C6.41211 12.3795 9.75497 8.44629 14.4923 8.44629C19.2247 8.44629 22.5725 12.3795 22.5725 17.2353V21.4523" stroke="#282828" stroke-width="1.5" stroke-linecap="round" stroke-linejoin="round"/>
<path d="M4.82031 15.8873C5.48295 10.7427 9.29559 6.75879 14.4928 6.75879C19.6901 6.75879 23.5027 10.7427 24.1654 15.8873" stroke="#282828" stroke-width="1.5" stroke-linecap="round" stroke-linejoin="round"/>
<path d="M6.46094 18.4973C6.46094 18.4973 7.29665 17.8688 10.0758 13.6011C10.0758 13.6011 17.4192 18.5024 22.2752 18.5024" stroke="#282828" stroke-width="1.5" stroke-linecap="round" stroke-linejoin="round"/>
<path d="M17.0783 25.2742C16.3266 25.6442 15.5107 25.8469 14.6453 25.8469C13.77 25.8469 12.9343 25.6341 12.1777 25.2539" stroke="#282828" stroke-width="1.5" stroke-linecap="round" stroke-linejoin="round"/>
<path d="M6.43614 15.4814C4.39384 15.4814 2.74219 17.1794 2.74219 19.2677V20.7832C2.74219 22.8765 4.39384 24.5695 6.43614 24.5695V15.4814Z" fill="white" stroke="#282828" stroke-width="1.5" stroke-linecap="round" stroke-linejoin="round"/>
<path d="M22.5586 24.5695C24.6009 24.5695 26.2526 22.8765 26.2526 20.7832V19.2677C26.2526 17.1744 24.6009 15.4814 22.5586 15.4814V24.5695Z" fill="white" stroke="#282828" stroke-width="1.5" stroke-linecap="round" stroke-linejoin="round"/>
<path d="M6.43698 24.5698L5.54688 28.721H9.82929" stroke="#282828" stroke-width="1.5" stroke-linecap="round" stroke-linejoin="round"/>
<path d="M22.7849 24.5698L23.675 28.721H19.3926" stroke="#282828" stroke-width="1.5" stroke-linecap="round" stroke-linejoin="round"/>
<circle cx="24.5" cy="8.5" r="7.5" fill="#90C526"/>
<path d="M22.5556 10.4444V6.55556C22.5556 6.126 22.2073 5.77778 21.7778 5.77778C21.3482 5.77778 21 6.126 21 6.55556V11.2222C21 11.6518 21.3482 12 21.7778 12H26.4444C26.874 12 27.2222 11.6518 27.2222 11.2222C27.2222 10.7927 26.874 10.4444 26.4444 10.4444H22.5556Z" fill="white"/>
<path d="M27.7719 6.32804C27.9178 6.18218 28 5.98406 28 5.77778C28 5.5715 27.9181 5.37367 27.7722 5.22781L27.7655 5.22117C27.6202 5.07964 27.425 5 27.2222 5C27.0159 5 26.8181 5.08194 26.6723 5.22781L21.2281 10.672C21.0822 10.8178 21 11.0159 21 11.2222C21 11.2347 21.0003 11.2471 21.0009 11.2596C21.0102 11.4527 21.0911 11.6355 21.2278 11.7722C21.3737 11.9181 21.5715 12 21.7778 12C21.9841 12 22.1819 11.9181 22.3277 11.7722L27.7719 6.32804Z" fill="white"/>
</svg>
