<svg width="24" height="24" viewBox="0 0 24 24" fill="none" xmlns="http://www.w3.org/2000/svg">
<g id="LNB icon 4">
<path id="Vector" d="M1 17.2504C1 17.5687 1.26101 17.8298 1.57936 17.8298H22.4226C22.741 17.8298 23.002 17.5687 23.002 17.2504V15.9434H1V17.2504Z" fill="#5D6772"/>
<path id="Vector_2" d="M23 4.31445H1V15.9452H23V4.31445Z" fill="white"/>
<path id="Vector_3" d="M23 3.57936C23 3.26101 22.739 3 22.4206 3H1.57936C1.26101 3 1 3.26101 1 3.57936V4.31494H23V3.57936Z" fill="#5D6772"/>
<path id="Vector_4" d="M16.8998 20.662C16.8998 21.099 16.5122 21.453 16.0357 21.453H7.96811C7.48959 21.453 7.104 21.099 7.104 20.662C7.104 20.225 7.49156 19.8711 7.96811 19.8711H16.0357C16.5142 19.8711 16.8998 20.225 16.8998 20.662Z" fill="#5D6772"/>
<path id="Vector_5" d="M13.9141 17.1914H10.0859V20.7902H13.9141V17.1914Z" fill="#5D6772"/>
<path id="Vector_6" d="M4.91505 5.45508H2.24365V6.05817H4.91505V5.45508Z" fill="#A1A7AE"/>
<path id="Vector_7" d="M4.91505 6.63867H2.24365V7.24176H4.91505V6.63867Z" fill="#A1A7AE"/>
<path id="Vector_8" d="M14.9999 14.0963C14.8516 14.0963 14.7033 14.035 14.5945 13.9163L13.2598 12.4293C13.0601 12.2059 13.0779 11.8618 13.3013 11.6621C13.5248 11.4624 13.8688 11.4802 14.0685 11.7037L15.4032 13.1906C15.603 13.4141 15.5852 13.7581 15.3617 13.9578C15.2569 14.0508 15.1284 14.0963 14.9979 14.0963H14.9999Z" fill="#A1A7AE"/>
<path id="Vector_9" d="M11.8 13.311C9.94331 13.311 8.43262 11.8003 8.43262 9.9436C8.43262 8.08687 9.94331 6.57617 11.8 6.57617C13.6568 6.57617 15.1655 8.08687 15.1655 9.9436C15.1655 11.8003 13.6548 13.311 11.8 13.311ZM11.8 7.66569C10.5424 7.66569 9.52016 8.68798 9.52016 9.94558C9.52016 11.2032 10.5424 12.2255 11.8 12.2255C13.0576 12.2255 14.078 11.2032 14.078 9.94558C14.078 8.68798 13.0557 7.66569 11.8 7.66569Z" fill="#A1A7AE"/>
</g>
</svg>
