<svg width="33" height="32" viewBox="0 0 33 32" fill="none" xmlns="http://www.w3.org/2000/svg">
<g clip-path="url(#clip0_559_23245)">
<path d="M24.2225 20.7495L18.2735 20.3019C17.3885 20.2273 16.5281 20.6998 16.1102 21.4955C15.8889 21.9182 15.6922 22.3907 15.5693 22.7388C15.3481 22.6642 14.9548 22.515 14.3893 22.1918C12.4227 21.0976 10.8248 19.4813 9.74317 17.4919C9.42359 16.92 9.27609 16.4973 9.20234 16.2983C9.5465 16.174 9.98899 15.9751 10.4315 15.7513C11.2181 15.3285 11.6606 14.4582 11.6115 13.563L11.169 7.54523C11.1198 6.72462 10.6036 5.97862 9.89066 5.63048C8.73526 5.05855 5.78531 4.13848 3.52368 7.57009C2.36828 9.26103 1.85203 11.3747 2.0487 13.5133C2.24536 15.8507 3.62201 19.904 6.86696 23.7335C7.28487 24.2308 7.72736 24.6784 8.21902 25.1012C11.9802 28.3587 16.0118 29.7513 18.3226 29.9751C18.6176 29.9999 18.888 30.0248 19.183 30.0248C21.0022 30.0248 22.7721 29.5026 24.1979 28.5328C27.615 26.245 26.6808 23.261 26.1154 22.0923C25.7713 21.3463 25.0338 20.849 24.2225 20.7992V20.7495ZM23.4113 27.2895C22.0101 28.2344 20.2401 28.6571 18.4455 28.5079C16.356 28.309 12.6685 27.0159 9.15317 23.9822C8.73526 23.6092 8.31735 23.2113 7.94861 22.7637C4.94949 19.2078 3.67117 15.4777 3.47451 13.3641C3.32701 11.5488 3.74492 9.75837 4.67907 8.34096C6.17864 6.05322 7.99777 6.30189 9.25151 6.89869C9.52192 7.02302 9.71858 7.29656 9.74317 7.61983L10.1857 13.6376C10.1857 13.9857 10.0382 14.2841 9.76775 14.4582C9.34984 14.682 8.90734 14.8809 8.58777 14.9804C7.97319 15.2291 7.62903 15.9005 7.80111 16.5719C7.92403 17.0195 8.16986 17.5914 8.51402 18.1882C9.71858 20.4014 11.5377 22.2415 13.7256 23.46C14.3402 23.8081 14.9056 24.0568 15.3235 24.1811C15.9627 24.38 16.651 24.0319 16.8968 23.3854C17.0197 23.087 17.1918 22.6145 17.4131 22.1918C17.5605 21.8934 17.8801 21.7442 18.2243 21.769L24.1734 22.2166C24.4684 22.2166 24.7634 22.4156 24.8863 22.714C25.4763 23.9822 25.7221 25.8223 23.4605 27.3392L23.4113 27.2895Z" fill="black"/>
</g>
<circle cx="23.5" cy="8.5" r="7.5" fill="#90C526"/>
<path d="M25.4444 6.55556L25.4444 10.4444C25.4444 10.874 25.7927 11.2222 26.2222 11.2222C26.6518 11.2222 27 10.874 27 10.4444L27 5.77778C27 5.34822 26.6518 5 26.2222 5L21.5556 5C21.126 5 20.7778 5.34822 20.7778 5.77778C20.7778 6.20733 21.126 6.55556 21.5556 6.55556L25.4444 6.55556Z" fill="white"/>
<path d="M20.2281 10.672C20.0822 10.8178 20 11.0159 20 11.2222C20 11.4285 20.0819 11.6263 20.2278 11.7722L20.2345 11.7788C20.3798 11.9204 20.575 12 20.7778 12C20.9841 12 21.1819 11.9181 21.3277 11.7722L26.7719 6.32804C26.9178 6.18218 27 5.98406 27 5.77778C27 5.76532 26.9997 5.75286 26.9991 5.74042C26.9898 5.54728 26.9089 5.36453 26.7722 5.2278C26.6263 5.08194 26.4285 5 26.2222 5C26.0159 5 25.8181 5.08194 25.6722 5.2278L20.2281 10.672Z" fill="white"/>
<defs>
<clipPath id="clip0_559_23245">
<rect width="28" height="28" fill="white" transform="translate(2 2)"/>
</clipPath>
</defs>
</svg>
