<svg width="22" height="22" viewBox="0 0 22 22" fill="none" xmlns="http://www.w3.org/2000/svg">
<path fill-rule="evenodd" clip-rule="evenodd" d="M10.6186 2.17797C10.8496 2.02401 11.1504 2.02401 11.3814 2.17797L19.6314 7.67797C19.8226 7.80547 19.9375 8.02013 19.9375 8.25V17.1875C19.9375 17.1875 19.9375 17.757 19.5348 18.1598C19.5348 18.1598 19.132 18.5625 18.5625 18.5625H3.4375C3.4375 18.5625 2.86796 18.5625 2.46523 18.1598C2.46523 18.1598 2.0625 17.757 2.0625 17.1875V8.25C2.0625 8.02013 2.17738 7.80547 2.36864 7.67797L10.6186 2.17797ZM3.4375 8.61794L11 3.57627L18.5625 8.61794V17.1875H3.4375V8.61794Z" fill="#262D34"/>
<path d="M9.09907 12.5012L2.56811 17.1159C2.4192 17.2211 2.31818 17.3811 2.28729 17.5608C2.28067 17.5993 2.27734 17.6383 2.27734 17.6773L2.27754 17.694C2.28084 17.8303 2.32464 17.9627 2.40336 18.0741C2.5322 18.2564 2.74157 18.3648 2.96484 18.3648C2.97312 18.3648 2.98139 18.3647 2.98966 18.3644C3.1232 18.3596 3.25244 18.3159 3.36157 18.2388L9.89253 13.6242C10.0749 13.4953 10.1836 13.2858 10.1836 13.0625C10.1836 13.0542 10.1834 13.046 10.1831 13.0377C10.1783 12.9041 10.1347 12.7749 10.0576 12.6658C9.95236 12.5169 9.79229 12.4158 9.61259 12.3849C9.57411 12.3783 9.53514 12.375 9.4961 12.375L9.47948 12.3752C9.3431 12.3785 9.21049 12.4225 9.09907 12.5012Z" fill="#262D34"/>
<path d="M19.4319 17.1159L12.9006 12.501C12.7846 12.419 12.646 12.375 12.5039 12.375C12.4886 12.375 12.4733 12.3755 12.458 12.3765C12.2514 12.3904 12.0619 12.4966 11.9424 12.6658C11.8604 12.7818 11.8164 12.9204 11.8164 13.0625C11.8164 13.0778 11.8169 13.0931 11.8179 13.1084C11.8318 13.3151 11.938 13.5045 12.1072 13.624L18.6384 18.2388C18.7545 18.3208 18.8931 18.3648 19.0352 18.3648C19.0505 18.3648 19.0658 18.3643 19.0811 18.3633C19.2877 18.3495 19.4771 18.2432 19.5966 18.0741C19.6786 17.958 19.7227 17.8194 19.7227 17.6773C19.7227 17.662 19.7221 17.6467 19.7211 17.6314C19.7073 17.4248 19.601 17.2354 19.4319 17.1159Z" fill="#262D34"/>
<path d="M9.71618 12.375L3.14926 7.69032C3.03273 7.60718 2.89315 7.5625 2.75 7.5625C2.73572 7.5625 2.72145 7.56294 2.7072 7.56383C2.50049 7.57673 2.3106 7.68213 2.19032 7.85074C2.10718 7.96727 2.0625 8.10685 2.0625 8.25C2.0625 8.26428 2.06294 8.27855 2.06383 8.2928C2.07673 8.49951 2.18213 8.6894 2.35074 8.80968L9.09683 13.6222C9.21337 13.7053 9.35294 13.75 9.49609 13.75H12.5039C12.6471 13.75 12.7866 13.7053 12.9032 13.6222L19.6493 8.80968C19.8301 8.68066 19.9375 8.47217 19.9375 8.25C19.9375 8.24069 19.9373 8.23138 19.9369 8.22208C19.9315 8.08856 19.8873 7.95952 19.8097 7.85074C19.7038 7.7023 19.5433 7.60201 19.3634 7.57192C19.3259 7.56565 19.288 7.5625 19.25 7.5625L19.2303 7.56278C19.0939 7.5667 18.9618 7.61109 18.8507 7.69032L12.2838 12.375H9.71618Z" fill="#262D34"/>
</svg>
