<svg width="32" height="32" viewBox="0 0 32 32" fill="none" xmlns="http://www.w3.org/2000/svg">
<path d="M25.334 13C25.334 18.5228 21.0806 23 15.834 23C10.5873 23 6.33398 18.5228 6.33398 13C6.33398 7.47721 10.5873 3 15.834 3C21.0806 3 25.334 7.47721 25.334 13Z" fill="#E7E7E7"/>
<path fill-rule="evenodd" clip-rule="evenodd" d="M15.8923 2C15.8923 2 18.0861 2 20.0914 2.8509C20.0914 2.8509 22.0274 3.67236 23.5198 5.16943C23.5198 5.16943 25.0121 6.66649 25.831 8.60865C25.831 8.60865 26.6792 10.6204 26.6792 12.8211C26.6792 12.8211 26.6792 15.0218 25.831 17.0335C25.831 17.0335 25.0121 18.9757 23.5198 20.4728C23.5198 20.4728 22.0274 21.9698 20.0914 22.7913C20.0914 22.7913 18.0861 23.6422 15.8923 23.6422C15.8923 23.6422 13.6986 23.6422 11.6932 22.7913C11.6932 22.7913 9.75719 21.9698 8.26486 20.4728C8.26486 20.4728 6.77254 18.9757 5.95367 17.0335C5.95367 17.0335 5.10547 15.0218 5.10547 12.8211C5.10547 12.8211 5.10547 10.6204 5.95367 8.60865C5.95367 8.60865 6.77254 6.66649 8.26486 5.16943C8.26486 5.16943 9.75719 3.67236 11.6932 2.8509C11.6932 2.8509 13.6986 2 15.8923 2ZM15.8923 4.54614C15.8923 4.54614 12.4756 4.54614 10.0596 6.96982C10.0596 6.96982 7.64355 9.3935 7.64355 12.8211C7.64355 12.8211 7.64355 16.2487 10.0596 18.6724C10.0596 18.6724 12.4756 21.096 15.8923 21.096C15.8923 21.096 19.3091 21.0961 21.7251 18.6724C21.7251 18.6724 24.1411 16.2487 24.1411 12.8211C24.1411 12.8211 24.1411 9.3935 21.7251 6.96982C21.7251 6.96982 19.3091 4.54614 15.8923 4.54614Z" fill="#282828"/>
<path d="M23.3629 25.1367C26.7045 26.7025 29.0744 29.5405 29.0744 29.5405C29.3177 29.8319 29.6765 30 30.0547 30L30.0753 29.9998C30.3689 29.9951 30.652 29.8889 30.877 29.6993C31.1667 29.4551 31.334 29.0945 31.334 28.7145L31.3338 28.6938C31.3291 28.3988 31.2235 28.1144 31.0347 27.8883L31.0336 27.8869C28.2993 24.6131 24.4443 22.8067 24.4443 22.8067C20.5885 21 16.334 21 16.334 21C12.0795 21 8.22367 22.8067 8.22367 22.8067C4.36862 24.6131 1.63436 27.887 1.63436 27.887L1.63325 27.8883C1.43994 28.1198 1.33398 28.4124 1.33398 28.7145L1.33399 28.7183C1.3341 28.7545 1.33572 28.7906 1.33886 28.8266C1.36844 29.1663 1.53109 29.4802 1.79101 29.6993C2.02141 29.8935 2.31255 30 2.6133 30C2.65054 30 2.68776 29.9984 2.72486 29.9951C3.06286 29.9654 3.37527 29.802 3.59335 29.5408C5.96333 26.7026 9.30505 25.1367 9.30505 25.1367C12.6468 23.5709 16.334 23.5709 16.334 23.5709C20.0212 23.5709 23.3629 25.1367 23.3629 25.1367Z" fill="#282828"/>
<ellipse cx="23.7887" cy="13.3138" rx="4.82387" ry="4.83918" fill="white"/>
<path d="M26.2242 17.714L28.9805 20.479C29.239 20.7383 29.5895 20.884 29.9551 20.884C30.3206 20.884 30.6712 20.7383 30.9296 20.479C31.1881 20.2198 31.3333 19.8681 31.3333 19.5014C31.3333 19.1347 31.1881 18.783 30.9296 18.5237L28.1733 15.7586C27.9147 15.4992 27.5641 15.3535 27.1986 15.3535C26.833 15.3535 26.4825 15.4992 26.224 15.7585C25.9655 16.0178 25.8203 16.3694 25.8203 16.7361C25.8203 17.1028 25.9655 17.4545 26.2242 17.714Z" fill="#282828"/>
<path fill-rule="evenodd" clip-rule="evenodd" d="M23.7881 7.0918C23.7881 7.0918 26.3571 7.0918 28.1736 8.91412C28.1736 8.91412 29.9902 10.7364 29.9902 13.3136C29.9902 13.3136 29.9902 15.8908 28.1736 17.7131C28.1736 17.7131 26.3571 19.5354 23.7881 19.5354C23.7881 19.5354 21.2191 19.5354 19.4025 17.7131C19.4025 17.7131 17.5859 15.8908 17.5859 13.3136C17.5859 13.3136 17.5859 10.7364 19.4025 8.91412C19.4025 8.91412 21.2191 7.0918 23.7881 7.0918ZM23.7881 9.85704C23.7881 9.85704 22.3608 9.85704 21.3516 10.8694C21.3516 10.8694 20.3424 11.8818 20.3424 13.3136C20.3424 13.3136 20.3424 14.7454 21.3516 15.7578C21.3516 15.7578 22.3608 16.7702 23.7881 16.7702C23.7881 16.7702 25.2153 16.7702 26.2245 15.7578C26.2245 15.7578 27.2337 14.7454 27.2337 13.3136C27.2337 13.3136 27.2337 11.8818 26.2245 10.8694C26.2245 10.8694 25.2153 9.85704 23.7881 9.85704Z" fill="#282828"/>
</svg>
