<svg width="20" height="20" viewBox="0 0 20 20" fill="none" xmlns="http://www.w3.org/2000/svg">
<path fill-rule="evenodd" clip-rule="evenodd" d="M4.16667 3.95834C3.59137 3.95834 3.125 4.42471 3.125 5.00001V16.6667C3.125 17.242 3.59137 17.7083 4.16667 17.7083H15.8333C16.4086 17.7083 16.875 17.242 16.875 16.6667V5.00001C16.875 4.42471 16.4086 3.95834 15.8333 3.95834H4.16667ZM1.875 5.00001C1.875 3.73436 2.90101 2.70834 4.16667 2.70834H15.8333C17.099 2.70834 18.125 3.73436 18.125 5.00001V16.6667C18.125 17.9323 17.099 18.9583 15.8333 18.9583H4.16667C2.90101 18.9583 1.875 17.9323 1.875 16.6667V5.00001Z" fill="#828282"/>
<path fill-rule="evenodd" clip-rule="evenodd" d="M13.333 1.04166C13.6782 1.04166 13.958 1.32148 13.958 1.66666V4.99999C13.958 5.34517 13.6782 5.62499 13.333 5.62499C12.9878 5.62499 12.708 5.34517 12.708 4.99999V1.66666C12.708 1.32148 12.9878 1.04166 13.333 1.04166Z" fill="#828282"/>
<path fill-rule="evenodd" clip-rule="evenodd" d="M6.66699 1.04166C7.01217 1.04166 7.29199 1.32148 7.29199 1.66666V4.99999C7.29199 5.34517 7.01217 5.62499 6.66699 5.62499C6.32181 5.62499 6.04199 5.34517 6.04199 4.99999V1.66666C6.04199 1.32148 6.32181 1.04166 6.66699 1.04166Z" fill="#828282"/>
<path fill-rule="evenodd" clip-rule="evenodd" d="M1.875 8.33334C1.875 7.98817 2.15482 7.70834 2.5 7.70834H17.5C17.8452 7.70834 18.125 7.98817 18.125 8.33334C18.125 8.67852 17.8452 8.95834 17.5 8.95834H2.5C2.15482 8.95834 1.875 8.67852 1.875 8.33334Z" fill="#828282"/>
</svg>
