<svg width="16" height="16" viewBox="0 0 16 16" fill="none" xmlns="http://www.w3.org/2000/svg">
<path fill-rule="evenodd" clip-rule="evenodd" d="M14.3537 0.979943C14.549 1.1752 14.549 1.49179 14.3537 1.68705L13.374 2.66683L15.0204 4.31328C15.2157 4.50854 15.2157 4.82512 15.0204 5.02038L12.6871 7.35372C12.4918 7.54898 12.1752 7.54898 11.98 7.35372L10.3335 5.70727L8.28144 7.75935C8.51736 8.0565 8.71209 8.38511 8.85966 8.73636C9.0725 9.24299 9.18302 9.78672 9.18487 10.3362C9.18671 10.8858 9.07983 11.4302 8.87039 11.9383C8.66094 12.4463 8.35307 12.9079 7.9645 13.2965C7.57593 13.6851 7.11433 13.9929 6.60629 14.2024C6.09824 14.4118 5.55378 14.5187 5.00426 14.5168C4.45474 14.515 3.91101 14.4045 3.40438 14.1916C2.89775 13.9788 2.43823 13.6678 2.05227 13.2767L2.04852 13.2729C1.28953 12.487 0.86957 11.4345 0.879064 10.342C0.888557 9.24953 1.32676 8.20447 2.09929 7.43194C2.87183 6.65941 3.91688 6.2212 5.00937 6.21171C5.93664 6.20365 6.83511 6.50499 7.56616 7.06041L13.6466 0.979943C13.8419 0.784681 14.1585 0.784681 14.3537 0.979943ZM12.6669 3.37394L11.0406 5.00016L12.3335 6.29306L13.9597 4.66683L12.6669 3.37394ZM7.26266 8.1163C7.25684 8.11119 7.25112 8.10591 7.24549 8.10047C6.64825 7.52364 5.84835 7.20446 5.01806 7.21167C4.18777 7.21889 3.39353 7.55192 2.8064 8.13905C2.21928 8.72617 1.88624 9.52041 1.87903 10.3507C1.87182 11.1801 2.1903 11.9792 2.76596 12.5762C3.05891 12.8726 3.40748 13.1083 3.7917 13.2697C4.17674 13.4315 4.58998 13.5155 5.00761 13.5168C5.42525 13.5182 5.83904 13.437 6.22515 13.2778C6.61127 13.1187 6.96208 12.8847 7.25739 12.5894C7.55271 12.2941 7.78669 11.9432 7.94587 11.5571C8.10504 11.171 8.18627 10.7572 8.18487 10.3396C8.18347 9.92196 8.09947 9.50872 7.93771 9.12368C7.77966 8.74746 7.55041 8.40541 7.26266 8.1163Z" fill="#828282"/>
</svg>
