<svg width="20" height="21" viewBox="0 0 20 21" fill="none" xmlns="http://www.w3.org/2000/svg">
<path d="M10 2.375C8.39303 2.375 6.82214 2.85152 5.486 3.74431C4.14985 4.6371 3.10844 5.90605 2.49348 7.3907C1.87852 8.87535 1.71762 10.509 2.03112 12.0851C2.34463 13.6612 3.11846 15.1089 4.25476 16.2452C5.39106 17.3815 6.8388 18.1554 8.4149 18.4689C9.99099 18.7824 11.6247 18.6215 13.1093 18.0065C14.594 17.3916 15.8629 16.3502 16.7557 15.014C17.6485 13.6779 18.125 12.107 18.125 10.5C18.1209 8.34638 17.2635 6.28216 15.7407 4.75932C14.2178 3.23648 12.1536 2.37913 10 2.375ZM9.84375 6.125C10.0292 6.125 10.2104 6.17998 10.3646 6.283C10.5188 6.38601 10.6389 6.53243 10.7099 6.70373C10.7808 6.87504 10.7994 7.06354 10.7632 7.2454C10.7271 7.42725 10.6378 7.5943 10.5067 7.72541C10.3756 7.85652 10.2085 7.94581 10.0267 7.98199C9.84479 8.01816 9.65629 7.99959 9.48499 7.92864C9.31368 7.85768 9.16726 7.73752 9.06425 7.58335C8.96124 7.42918 8.90625 7.24792 8.90625 7.0625C8.90625 6.81386 9.00503 6.5754 9.18084 6.39959C9.35666 6.22377 9.59511 6.125 9.84375 6.125ZM10.625 14.875H10C9.83424 14.875 9.67527 14.8092 9.55806 14.6919C9.44085 14.5747 9.375 14.4158 9.375 14.25V10.5C9.20924 10.5 9.05027 10.4342 8.93306 10.3169C8.81585 10.1997 8.75 10.0408 8.75 9.875C8.75 9.70924 8.81585 9.55027 8.93306 9.43306C9.05027 9.31585 9.20924 9.25 9.375 9.25H10C10.1658 9.25 10.3247 9.31585 10.4419 9.43306C10.5592 9.55027 10.625 9.70924 10.625 9.875V13.625C10.7908 13.625 10.9497 13.6908 11.0669 13.8081C11.1842 13.9253 11.25 14.0842 11.25 14.25C11.25 14.4158 11.1842 14.5747 11.0669 14.6919C10.9497 14.8092 10.7908 14.875 10.625 14.875Z" fill="#E51414"/>
</svg>
