<svg width="800" height="297" viewBox="0 0 800 297" fill="none" xmlns="http://www.w3.org/2000/svg">
<path d="M766.764 184.953H800V243.36H766.764V288.694H695.008V243.36H556.501V185.092L671.923 3.89355H766.764V184.953ZM694.312 82.0469L630.621 182.728V184.953H696.676V82.0469H694.312Z" fill="#EDF0F3"/>
<path d="M398.771 296.204C321.869 296.065 274.17 240.579 274.448 146.85C274.727 52.8439 322.008 0 398.771 0C475.394 0 523.093 53.122 522.954 146.85C522.815 240.996 475.394 296.343 398.771 296.204ZM398.771 235.155C426.166 235.155 445.496 207.482 445.496 146.85C445.357 87.4705 426.166 60.4923 398.771 60.4923C371.236 60.4923 352.324 87.4705 352.046 146.85C351.767 207.482 371.236 235.155 398.771 235.155Z" fill="#EDF0F3"/>
<path d="M210.263 184.953H243.499V243.36H210.263V288.694H138.507V243.36H0V185.092L115.422 3.89355H210.263V184.953ZM137.811 82.0469L74.1205 182.728V184.953H140.175V82.0469H137.811Z" fill="#EDF0F3"/>
</svg>
