<svg width="40" height="40" viewBox="0 0 40 40" fill="none" xmlns="http://www.w3.org/2000/svg">
<path fill-rule="evenodd" clip-rule="evenodd" d="M16.1808 15.1346V36.1575H36.0121V15.1346H16.1808ZM14.9292 11.4401H37.2637C38.4971 11.4401 39.4971 12.5002 39.4971 13.8078V37.4843C39.4971 38.7919 38.4971 39.8519 37.2637 39.8519H14.9292C13.6957 39.8519 12.6958 38.7919 12.6958 37.4843V13.8078C12.6958 12.5002 13.6957 11.4401 14.9292 11.4401Z" fill="#5D6772"/>
<path d="M30.5773 24.5246L18.3985 1.79818C18.1069 1.2516 17.687 0.797591 17.181 0.481904C16.6751 0.166217 16.101 0 15.5165 0C14.9321 0 14.358 0.166217 13.852 0.481904C13.3461 0.797591 12.9262 1.2516 12.6346 1.79818L0.455761 24.5246C0.159905 25.0684 0.00267367 25.687 3.37988e-05 26.3176C-0.00260607 26.9482 0.14944 27.5683 0.440731 28.115C0.732022 28.6616 1.15218 29.1154 1.65855 29.4302C2.16492 29.7449 2.73945 29.9095 3.32382 29.9071H27.7092C28.2936 29.9095 28.8682 29.7449 29.3745 29.4302C29.8809 29.1154 30.301 28.6616 30.5923 28.115C30.8836 27.5683 31.0357 26.9482 31.033 26.3176C31.0304 25.687 30.8732 25.0684 30.5773 24.5246Z" fill="#0076F3"/>
</svg>
