<svg width="114" height="24" viewBox="0 0 114 24" fill="none" xmlns="http://www.w3.org/2000/svg">
<path d="M22.8981 14.6619L14.6619 22.8981C13.1927 24.3673 10.8084 24.3673 9.3392 22.8981L1.10299 14.6619C-0.367662 13.1912 -0.367662 10.8084 1.10299 9.33774L9.3392 1.10299C10.8084 -0.367662 13.1927 -0.367662 14.6619 1.10299L19.1119 5.55294C19.4788 5.91987 19.47 6.51924 19.0914 6.87594L13.314 12.3083C12.9515 12.6489 12.3843 12.6401 12.032 12.2893L9.88302 10.1403C9.1974 9.45469 8.08637 9.45469 7.40221 10.1403C6.71659 10.8245 6.71659 11.9355 7.40221 12.6211L10.7368 15.9542C11.266 16.4849 11.956 16.7509 12.646 16.7509C13.336 16.7509 13.9734 16.5053 14.4967 16.0127L21.616 9.31874C21.9786 8.97812 22.5458 8.98689 22.8981 9.3392C24.3673 10.8099 24.3673 13.1927 22.8981 14.6634V14.6619Z" fill="#333333"/>
<mask id="mask0_2654_1416" style="mask-type:alpha" maskUnits="userSpaceOnUse" x="36" y="2" width="79" height="20">
<path d="M108.616 22C105.557 22 103.68 20.6326 103.497 18.5306H106.475C106.638 19.4081 107.474 19.8163 108.677 19.8163C110.085 19.8163 111.023 19.2244 111.023 17.6734V15.653H110.88C110.472 16.551 109.493 17.4489 107.719 17.4489C105.21 17.4489 103.211 15.6938 103.211 11.9999C103.211 8.24484 105.271 6.3877 107.719 6.3877C109.575 6.3877 110.472 7.48974 110.88 8.3877H111.003V6.53055H114.001V17.7346C114.001 20.551 111.757 22 108.616 22ZM108.657 15.1836C110.166 15.1836 111.023 13.9999 111.023 12.0408C111.023 10.0612 110.166 8.79586 108.657 8.79586C107.127 8.79586 106.311 10.1224 106.311 12.0408C106.311 13.9591 107.127 15.1836 108.657 15.1836Z" fill="#0066FF"/>
<path d="M94.1731 11.204V17.6122H91.1543V6.53055H94.0303V8.46933H94.1527C94.6627 7.18361 95.8457 6.3877 97.4775 6.3877C99.7824 6.3877 101.312 7.95913 101.292 10.551V17.6122H98.2934V11.0816C98.2934 9.71423 97.5387 8.8979 96.2945 8.8979C95.0298 8.8979 94.1731 9.73464 94.1731 11.204Z" fill="#0066FF"/>
<path d="M85.7912 17.6123V6.53062H88.81V17.6123H85.7912ZM87.3006 5.08163C86.3827 5.08163 85.6484 4.38776 85.6484 3.55102C85.6484 2.69388 86.3827 2 87.3006 2C88.1981 2 88.9324 2.69388 88.9324 3.55102C88.9324 4.38776 88.1981 5.08163 87.3006 5.08163Z" fill="#0066FF"/>
<path d="M74.1445 17.6124V2.83691H77.1634V10.7757H77.3265L80.9165 6.53079H84.3841L80.2638 11.3267L84.6084 17.6124H81.0593L78.0201 13.1022L77.1634 14.0614V17.6124H74.1445Z" fill="#0066FF"/>
<path d="M66.0039 17.6126V6.53094H68.9207V8.44931H69.0431C69.4511 7.08196 70.471 6.36768 71.7152 6.36768C72.0212 6.36768 72.4087 6.40849 72.6739 6.46972V9.1636C72.3883 9.08196 71.8172 9.00033 71.3888 9.00033C70.0222 9.00033 69.0227 9.95951 69.0227 11.3065V17.6126H66.0039Z" fill="#0066FF"/>
<path d="M53.8281 14.5101C53.8281 12.0408 55.8271 11.2244 57.9484 11.102C58.7439 11.051 60.2329 10.9795 60.7021 10.9591V10.0612C60.6817 9.1428 60.0494 8.59178 58.9275 8.59178C57.9076 8.59178 57.2549 9.06117 57.0917 9.81627H54.2157C54.3993 7.8979 56.0718 6.3877 59.0091 6.3877C61.416 6.3877 63.7005 7.46933 63.7005 10.1428V17.6122H60.8449V16.0816H60.7633C60.2125 17.102 59.1723 17.8163 57.5201 17.8163C55.3987 17.8163 53.8281 16.7142 53.8281 14.5101ZM56.7246 14.4285C56.7246 15.2857 57.4181 15.7346 58.3768 15.7346C59.7434 15.7346 60.7225 14.8163 60.7021 13.653V12.8367C60.2431 12.8571 58.9581 12.9285 58.438 12.9795C57.3977 13.0816 56.7246 13.5714 56.7246 14.4285Z" fill="#0066FF"/>
<path d="M36 17.6122V6.53055H38.876V8.46933H38.9984C39.4676 7.18361 40.5894 6.3877 42.0785 6.3877C43.6083 6.3877 44.7301 7.18361 45.0973 8.46933H45.1993C45.6684 7.20402 46.9127 6.3877 48.5445 6.3877C50.6046 6.3877 52.0324 7.75504 52.0324 10.1632V17.6122H49.0136V10.755C49.0136 9.48974 48.2793 8.87749 47.2798 8.87749C46.1376 8.87749 45.4848 9.67341 45.4848 10.8367V17.6122H42.5476V10.6734C42.5476 9.57137 41.8541 8.87749 40.8342 8.87749C39.8143 8.87749 39.0188 9.69382 39.0188 10.9591V17.6122H36Z" fill="#0066FF"/>
</mask>
<g mask="url(#mask0_2654_1416)">
<rect x="35.1289" y="-0.19043" width="79.1967" height="22.6395" fill="#333333"/>
</g>
</svg>
