<svg width="132" height="22" viewBox="0 0 132 22" fill="none" xmlns="http://www.w3.org/2000/svg">
<path fill-rule="evenodd" clip-rule="evenodd" d="M9.4741 8.3547V19.9604H21.0854V8.3547H9.4741ZM8.74129 6.31519H21.8182C22.5404 6.31519 23.1259 6.90038 23.1259 7.62224V20.6928C23.1259 21.4147 22.5404 21.9999 21.8182 21.9999H8.74129C8.01907 21.9999 7.43359 21.4147 7.43359 20.6928V7.62224C7.43359 6.90038 8.01907 6.31519 8.74129 6.31519Z" fill="#5D6772"/>
<path d="M17.9032 13.5388L10.7724 0.992683C10.6017 0.690942 10.3558 0.440309 10.0596 0.266034C9.76336 0.0917598 9.42722 0 9.08503 0C8.74284 0 8.40669 0.0917598 8.11046 0.266034C7.81422 0.440309 7.56836 0.690942 7.39765 0.992683L0.266851 13.5388C0.0936252 13.839 0.00156545 14.1805 1.97894e-05 14.5286C-0.00152587 14.8767 0.0874978 15.219 0.258051 15.5208C0.428603 15.8226 0.674611 16.0731 0.971092 16.2469C1.26757 16.4207 1.60397 16.5115 1.94612 16.5102H16.2239C16.5661 16.5115 16.9025 16.4207 17.199 16.2469C17.4954 16.0731 17.7415 15.8226 17.912 15.5208C18.0826 15.219 18.1716 14.8767 18.17 14.5286C18.1685 14.1805 18.0764 13.839 17.9032 13.5388Z" fill="#0076F3"/>
<path d="M128.622 3.0564H131.587V20.3238H128.622V3.0564ZM120.703 5.90976H123.023V6.86701C123.023 11.3219 121.863 15.5191 118.585 17.268L116.688 15.0037C119.745 13.5126 120.703 10.107 120.703 6.86701V5.90976ZM121.421 5.90976H123.723V6.86701C123.723 9.59151 124.773 12.9971 127.775 14.5435L126.062 16.8262C122.765 15.1694 121.421 10.8617 121.421 6.86701V5.90976ZM117.387 4.63955H126.965V7.01429H117.387V4.63955ZM126.228 8.53695H130.648V10.9669H126.228V8.53695Z" fill="black"/>
<path d="M112.362 3.03809H115.327V20.3055H112.362V3.03809ZM101.532 4.65806H104.497V15.4088H101.532V4.65806ZM101.532 13.66H103.135C105.603 13.66 108.42 13.4943 111.257 12.942L111.57 15.3904C108.641 15.9979 105.713 16.1635 103.135 16.1635H101.532V13.66Z" fill="black"/>
<path d="M96.6337 3.03809H99.4517V20.3055H96.6337V3.03809ZM94.9209 9.49957H97.5362V11.8559H94.9209V9.49957ZM92.8765 3.25899H95.6392V19.5876H92.8765V3.25899ZM84.9385 4.69488H91.882V16.182H84.9385V4.69488ZM89.1377 6.99598H87.7011V13.8809H89.1377V6.99598Z" fill="black"/>
<path d="M66.5862 11.7081H78.8893V14.0277H66.5862V11.7081ZM64.855 16.0894H80.4916V18.4826H64.855V16.0894ZM66.5862 4.17896H78.7788V6.53528H69.6068V12.334H66.5862V4.17896ZM68.7043 7.95276H78.3736V10.2354H68.7043V7.95276Z" fill="black"/>
<path d="M49.0728 4.60273H57.5265V16.2187H49.0728V4.60273ZM54.5981 6.92224H52.0012V13.8992H54.5981V6.92224ZM59.3314 3.0564H62.3151V20.3238H59.3314V3.0564ZM61.6705 9.3522H64.6357V11.7822H61.6705V9.3522Z" fill="black"/>
<path d="M38.576 3.94043H41.1545V5.137C41.1545 8.87398 38.9443 12.4269 33.9163 13.3473L32.6639 10.8805C37.0289 10.1626 38.576 7.36446 38.576 5.137V3.94043ZM39.1838 3.94043H41.7622V5.137C41.7622 7.4381 43.2725 10.1626 47.6743 10.8805L46.4219 13.3473C41.3755 12.4085 39.1838 8.94762 39.1838 5.137V3.94043ZM32.4429 15.9245H48.0795V18.3361H32.4429V15.9245Z" fill="black"/>
</svg>
